<?xml version="1.0" encoding="utf-8"?>
<!-- Generator: Adobe Illustrator 25.2.0, SVG Export Plug-In . SVG Version: 6.00 Build 0)  -->
<svg version="1.1" id="Ebene_1" xmlns="http://www.w3.org/2000/svg" xmlns:xlink="http://www.w3.org/1999/xlink" x="0px" y="0px"
	 viewBox="0 0 1293.1 205" style="enable-background:new 0 0 1293.1 205;" xml:space="preserve">
<style type="text/css">
	.st0{fill:#FFFFFF;}
</style>
<g id="Gruppe_1169" transform="translate(-2907.436 14748)">
	<g id="Gruppe_1168" transform="translate(3477.739 -14791.177)">
		<path id="Pfad_509" class="st0" d="M-411.8,43.2c-87.5,0-158.5,45.9-158.5,102.5s71,102.5,158.5,102.5s158.5-45.9,158.5-102.5
			S-324.2,43.2-411.8,43.2z M-411.8,204.2c-13,0-23.6-25.6-24.3-57.9c7.9,0.7,16,1.1,24.3,1.1s16.5-0.4,24.3-1.1
			C-388.1,178.6-398.8,204.2-411.8,204.2L-411.8,204.2z M-434.5,120.7c3.5-22.8,12.4-39,22.7-39s19.2,16.2,22.7,39
			c-7.3,0.7-14.9,1-22.7,1S-427.2,121.4-434.5,120.7L-434.5,120.7z M-411.8,58c-17,0-31.5,25.4-36.9,60.9
			c-32.2-5-54.7-16.5-54.7-29.8c0-18,41-32.5,91.6-32.5s91.6,14.6,91.6,32.5c0,13.3-22.5,24.7-54.7,29.8
			C-380.3,83.5-394.8,58-411.8,58L-411.8,58z M-547.6,141.8c0-17.4,6.7-33.7,18.3-47.7c-0.1,1-0.2,2-0.2,3
			c0,21.9,32.8,40.5,78.6,47.4c0,1.6-0.1,3.2-0.1,4.8c0,40.8,11.4,75.3,27.2,87.1C-493.1,232.2-547.6,191.5-547.6,141.8z
			 M-400,236.4c15.8-11.7,27.2-46.3,27.2-87.1c0-1.6,0-3.2-0.1-4.8c45.8-6.9,78.6-25.5,78.6-47.4c0-1-0.1-2-0.2-3
			c11.7,14,18.3,30.3,18.3,47.7C-276,191.5-330.5,232.2-400,236.4z"/>
		<rect id="Rechteck_509" x="-208" y="45.6" class="st0" width="7" height="197"/>
		<g id="Toyota">
			<g id="Gruppe_1166">
				<path id="Pfad_510" class="st0" d="M-102.7,58.5h-20.5v65.1h-15V58.5h-20.7v-13h56.1L-102.7,58.5z"/>
				<path id="Pfad_511" class="st0" d="M-106.9,95.8c0-16.7,12.3-28.9,30.3-28.9c17.8,0,30.1,12.2,30.1,28.9s-12.3,28.9-30.1,28.9
					C-94.6,124.7-106.9,112.5-106.9,95.8z M-60.7,95.7c0-9.6-6.5-16.2-15.9-16.2c-9.6,0-16.1,6.6-16.1,16.3
					c0,9.8,6.6,16.3,16.1,16.3C-67.1,112.1-60.7,105.4-60.7,95.7L-60.7,95.7z"/>
				<path id="Pfad_512" class="st0" d="M13.1,68l-24.3,62.6c-4.2,10.9-10.4,16.4-21.3,16.4c-3.1,0.1-6.3-0.5-9.2-1.5l1.7-11.8
					c1.6,0.6,3.3,0.9,5.1,0.9c5.1,0,8.8-1.9,11.4-8l2.1-5.1L-44.1,68H-29l14.6,37.8L-1.2,68L13.1,68z"/>
				<path id="Pfad_513" class="st0" d="M14.9,95.8c0-16.7,12.3-28.9,30.2-28.9c17.8,0,30.1,12.2,30.1,28.9S63,124.7,45.1,124.7
					C27.2,124.7,14.9,112.5,14.9,95.8z M61.1,95.7c0-9.6-6.5-16.2-16-16.2c-9.6,0-16.1,6.6-16.1,16.3c0,9.8,6.6,16.3,16.1,16.3
					C54.7,112.1,61.1,105.4,61.1,95.7L61.1,95.7z"/>
				<path id="Pfad_514" class="st0" d="M89.8,106.5V79.5h-8.6V68h8.6V52.4l13.8-1.8V68h15.1v11.6h-15.1v25.1c0,5.3,2.4,7.7,6.6,7.7
					c3.6,0,7.3-1.7,9.6-3l2.2,11.1c-4.5,2.9-9.7,4.3-15.1,4.3C96.2,124.7,89.8,118.8,89.8,106.5z"/>
				<path id="Pfad_515" class="st0" d="M177.1,88.5v35.1h-13.6v-7.7c-3.5,5.1-10.2,8.9-18.8,8.9c-10.9,0-18-6.3-18-16.6
					c0-13,11.4-17.8,36.7-18.2V89c0-6.6-3.9-10.8-12.3-10.8c-6.3,0.1-12.3,2.2-17.4,5.8l-3.2-10.9c6.9-4.2,14.9-6.3,23-6.3
					C167.8,66.9,177.1,73.5,177.1,88.5z M163.4,102.3v-3.7c-16.8,0.3-22.4,2.9-22.4,8.9c0,4.4,3.1,7.2,8.7,7.2
					C156.3,114.6,163.4,110.9,163.4,102.3z"/>
			</g>
		</g>
		<g id="Financial_Services">
			<g id="Gruppe_1167">
				<path id="Pfad_516" class="st0" d="M-149.7,164.5h42.6v7.5h-34.3V200h32.8v7.5h-32.8v35.2h-8.2V164.5z"/>
				<path id="Pfad_517" class="st0" d="M-95.6,169.5c-0.1-3.2,2.5-5.8,5.6-5.8c0.1,0,0.1,0,0.2,0c3.2-0.1,5.8,2.5,5.8,5.6
					c0,0.1,0,0.1,0,0.2c0.1,3.2-2.5,5.8-5.6,5.8c-0.1,0-0.1,0-0.2,0c-3.2,0.1-5.8-2.5-5.8-5.6C-95.6,169.6-95.6,169.6-95.6,169.5z
					 M-93.7,187.4h7.7v55.2h-7.7V187.4z"/>
				<path id="Pfad_518" class="st0" d="M-19.4,208.9v33.8h-7.7V211c0-11.6-5.1-17.6-14.6-17.6c-10.3,0-17.8,7.5-17.8,17.8v31.5h-7.7
					v-55.2h7.7v10.2c3.6-6.9,10.8-11.3,20.2-11.3C-27,186.3-19.4,193.7-19.4,208.9z"/>
				<path id="Pfad_519" class="st0" d="M42.5,208.3v34.3h-7.6V233c-3.4,6.2-10.8,10.8-20.7,10.8c-11.9,0-18.8-6.4-18.8-16.4
					c0-12.4,10.7-17.4,39.4-17.6v-1.4c0-9.1-5.3-15.2-15.6-15.2c-6.6,0.1-13,2.5-18.1,6.7l-2.2-6.9c6.3-4.4,13.8-6.7,21.5-6.6
					C34.2,186.3,42.5,193.6,42.5,208.3z M34.8,220.9v-5.5c-24.1,0.2-31.4,3.7-31.4,11.8c0,6.2,4.3,10.2,12.3,10.2
					C24.2,237.4,34.8,232.8,34.8,220.9z"/>
				<path id="Pfad_520" class="st0" d="M108.4,208.9v33.8h-7.7V211c0-11.6-5.1-17.6-14.6-17.6c-10.3,0-17.8,7.5-17.8,17.8v31.5h-7.7
					v-55.2h7.7v10.2c3.6-6.9,10.8-11.3,20.2-11.3C100.8,186.3,108.4,193.7,108.4,208.9z"/>
				<path id="Pfad_521" class="st0" d="M121.7,215.1c0-17.1,11.4-28.8,27.9-28.8c6.8-0.1,13.4,2,18.9,5.8l-2.5,7
					c-4.6-3.6-10.2-5.6-16.1-5.6c-12.2,0-20.4,8.6-20.4,21.3c0,13,8.1,21.6,19.7,21.6c6.5-0.1,12.8-2.2,18-5.9l2,6.8
					c-5.9,4.2-13.1,6.5-20.4,6.4C133.1,243.7,121.7,232.2,121.7,215.1z"/>
				<path id="Pfad_522" class="st0" d="M180.2,169.5c0-3.2,2.6-5.8,5.8-5.8s5.8,2.6,5.8,5.8s-2.6,5.8-5.8,5.8
					c-3.2,0.1-5.8-2.5-5.8-5.6C180.2,169.6,180.2,169.6,180.2,169.5z M182.1,187.4h7.7v55.2h-7.7V187.4z"/>
				<path id="Pfad_523" class="st0" d="M252.3,208.3v34.3h-7.6V233c-3.4,6.2-10.8,10.8-20.7,10.8c-11.9,0-18.8-6.4-18.8-16.4
					c0-12.4,10.7-17.4,39.4-17.6v-1.4c0-9.1-5.3-15.2-15.6-15.2c-6.6,0.1-13,2.5-18.2,6.7l-2.2-6.9c6.3-4.4,13.8-6.7,21.4-6.6
					C244,186.3,252.3,193.6,252.3,208.3z M244.6,220.9v-5.5c-24.1,0.2-31.4,3.7-31.4,11.8c0,6.2,4.3,10.2,12.3,10.2
					C234,237.4,244.6,232.8,244.6,220.9z"/>
				<path id="Pfad_524" class="st0" d="M270,230.5v-70.6h7.7v69.5c0,5.2,2.1,7.3,5.4,7.3c2-0.1,3.9-0.6,5.7-1.4l1.2,6.5
					c-2.7,1.4-5.7,2-8.7,2C274.4,243.7,270,239.7,270,230.5z"/>
				<path id="Pfad_525" class="st0" d="M324,235.9l2.3-8c6.4,5.3,14.4,8.2,22.7,8.2c10.1,0,16.5-4.8,16.5-14c0-8.9-7-11.6-17.8-15.5
					c-11.7-4.3-21.9-8.9-21.9-22.2c0-13,10.1-21.1,25-21.1c7.1,0,14.1,1.8,20.4,5.1l-2,7.8c-5.8-3.4-12.3-5.2-18.9-5.4
					c-9.8,0-16.3,5.1-16.3,13.1c0,8.8,7.1,11.8,17.3,15.6c11.8,4.5,22.4,7.6,22.4,22.1c0,14.2-10.5,22.1-25.3,22.1
					C339.6,243.8,331,241,324,235.9z"/>
				<path id="Pfad_526" class="st0" d="M437.7,215.6h-45.3c0.3,13,8.6,21.1,21.2,21.1c7.4,0,14.6-2.7,20.1-7.7l2.2,6.8
					c-4.7,4.3-13,7.9-22.8,7.9c-17.7,0-28.6-12.9-28.6-28.7c0-16.5,11.7-28.7,27.2-28.7c15.4,0,26,11.8,26,28.3L437.7,215.6z
					 M429.6,209.5c-1.2-9.5-7.9-16.4-17.8-16.4c-9.1,0-17.2,6.6-18.9,16.4L429.6,209.5z"/>
				<path id="Pfad_527" class="st0" d="M479.7,187.4l-1.9,7.5c-1.8-0.7-3.7-1-5.6-1.1c-9.2,0-13.5,8.1-13.5,19.5v29.4h-7.6v-55.2
					h7.6v9.9c3.2-8.2,8-11.1,14.3-11.1C475.3,186.2,477.6,186.6,479.7,187.4z"/>
				<path id="Pfad_528" class="st0" d="M534.5,187.4l-22.4,55.2h-7.9l-22.4-55.2h8.5l17.9,46.4l18.2-46.4H534.5z"/>
				<path id="Pfad_529" class="st0" d="M541.7,169.5c0-3.2,2.6-5.8,5.8-5.8c3.2,0,5.8,2.6,5.8,5.8s-2.6,5.8-5.8,5.8
					c-3.2,0.1-5.8-2.5-5.8-5.6C541.7,169.6,541.7,169.6,541.7,169.5z M543.5,187.4h7.7v55.2h-7.7V187.4z"/>
				<path id="Pfad_530" class="st0" d="M565.1,215.1c0-17.1,11.4-28.8,27.9-28.8c6.8-0.1,13.4,2,18.9,5.8l-2.5,7
					c-4.6-3.6-10.2-5.6-16.1-5.6c-12.2,0-20.3,8.6-20.3,21.3c0,13,8.1,21.6,19.7,21.6c6.5-0.1,12.8-2.2,18-5.9l2,6.8
					c-5.9,4.2-13.1,6.5-20.4,6.4C576.5,243.7,565.1,232.2,565.1,215.1z"/>
				<path id="Pfad_531" class="st0" d="M673.4,215.6h-45.3c0.3,13,8.6,21.1,21.2,21.1c7.4,0,14.6-2.7,20.1-7.7l2.2,6.8
					c-4.7,4.3-13,7.9-22.8,7.9c-17.7,0-28.6-12.9-28.6-28.7c0-16.5,11.7-28.7,27.2-28.7c15.4,0,26,11.8,26,28.3L673.4,215.6z
					 M665.3,209.5c-1.2-9.5-7.9-16.4-17.8-16.4c-9.1,0-17.2,6.6-18.9,16.4L665.3,209.5z"/>
				<path id="Pfad_532" class="st0" d="M683.2,237.8l2.1-6.8c5,4.1,11.2,6.3,17.6,6.3c7.6,0,12.3-3.5,12.3-9.2s-5-7.4-13.6-10.1
					c-8.4-2.5-16.7-5.5-16.7-15.7c0-9.9,7.9-15.8,19.5-15.8c5.9,0,11.7,1.6,16.7,4.6l-1.7,6.8c-4.5-3.1-9.8-4.8-15.3-4.9
					c-6.9,0-11.5,3.2-11.5,8.6c0,5.8,5.7,7.8,12.8,9.8c9.4,2.6,17.5,5.9,17.5,16.1c0,9.8-7.5,16.5-20.3,16.5
					C694.8,243.7,687.1,241.2,683.2,237.8z"/>
			</g>
		</g>
	</g>
</g>
</svg>
