<svg width="1250" height="170" viewBox="0 0 1250 170" fill="none" xmlns="http://www.w3.org/2000/svg">
<path d="M1068.71 65.6699V161.994H1100.09V97.8616H1214.3V161.994H1245.66V65.8369L1068.71 65.6699Z" fill="#E82127"/>
<path d="M1096.6 34.5124H1217.26C1234.02 31.233 1246.48 16.6736 1250 2.58887H1063.86C1067.34 16.678 1079.99 31.233 1096.6 34.5124Z" fill="#E82127"/>
<path d="M973.674 162.057C989.496 155.454 998.007 144.034 1001.27 130.67H860.521L860.611 2.66797L829.06 2.75584V162.057H973.674Z" fill="#E82127"/>
<path d="M594.44 34.082H705.878C722.678 29.2772 736.785 16.6784 740.224 2.7124H563.202V96.8521H708.089V129.888L594.44 129.976C576.631 134.864 561.528 146.637 553.994 162.185L563.202 162.018H739.219V65.5528H594.44V34.082Z" fill="#E82127"/>
<path d="M319.337 34.3844H439.961C456.743 31.0919 469.216 16.5456 472.712 2.44775H286.585C290.06 16.5456 302.716 31.0919 319.337 34.3844Z" fill="#E82127"/>
<path d="M319.336 97.3435H439.96C456.742 94.0861 469.215 79.5266 472.711 65.4199H286.584C290.059 79.531 302.715 94.0861 319.336 97.3435Z" fill="#E82127"/>
<path d="M319.336 162.04H439.96C456.742 158.756 469.215 144.201 472.711 130.112H286.584C290.059 144.205 302.715 158.756 319.336 162.04Z" fill="#E82127"/>
<path d="M5.52686 2.84291C9.15302 16.765 21.398 30.9947 38.1981 34.5598H88.9734L91.5635 35.5665V161.691H123.27V35.5665L126.151 34.5598H176.97C193.958 30.2518 205.94 16.765 209.503 2.84291V2.53516H5.52686V2.84291Z" fill="#E82127"/>
</svg>
