<svg width="40" height="40" viewBox="0 0 40 40" fill="none" xmlns="http://www.w3.org/2000/svg">
<path d="M20.3563 39.2602L25.8532 8.34534C31.0927 8.34534 32.7454 8.91988 32.984 11.265C32.984 11.265 36.4988 9.95446 38.2716 7.29278C31.3538 4.08723 24.403 3.94267 24.403 3.94267L20.3471 8.88269L20.3563 8.88207L16.3004 3.94189C16.3004 3.94189 9.34946 4.08662 2.43262 7.29216C4.20382 9.95384 7.72003 11.2644 7.72003 11.2644C7.96004 8.91911 9.6107 8.34456 14.8151 8.34084L20.3563 39.2602" fill="#E82127"/>
<path d="M20.3541 2.51573C25.9461 2.47296 32.3468 3.3808 38.8992 6.23663C39.775 4.66035 40.0001 3.96371 40.0001 3.96371C32.8374 1.12988 26.1296 0.160069 20.3533 0.135742C14.5773 0.160069 7.86982 1.13004 0.708008 3.96371C0.708008 3.96371 1.02751 4.82181 1.80813 6.23663C8.35929 3.3808 14.7611 2.47296 20.3533 2.51573H20.3541Z" fill="#E82127"/>
</svg>
