<svg width="446" height="446" viewBox="0 0 446 446" fill="none" xmlns="http://www.w3.org/2000/svg">
<path d="M226.971 437.754L288.262 93.0525C346.682 93.0525 365.11 99.4586 367.77 125.607C367.77 125.607 406.96 110.994 426.727 81.3165C349.593 45.5746 272.092 43.9627 272.092 43.9627L226.869 99.044L226.971 99.0371L181.748 43.9541C181.748 43.9541 104.245 45.5677 27.1223 81.3096C46.8712 110.987 86.077 125.6 86.077 125.6C88.7531 99.45 107.158 93.0438 165.187 93.0024L226.971 437.754Z" fill="#E82127"/>
<path d="M226.947 28.053C289.298 27.5761 360.666 37.6985 433.725 69.541C443.49 51.9655 446 44.198 446 44.198C366.135 12.6008 291.343 1.78736 226.938 1.51611C162.536 1.78736 87.7472 12.6025 7.89305 44.198C7.89305 44.198 11.4555 53.7657 20.1594 69.541C93.2049 37.6985 164.585 27.5761 226.938 28.053H226.947Z" fill="#E82127"/>
</svg>
