<svg id="Ebene_1" data-name="Ebene 1" xmlns="http://www.w3.org/2000/svg" viewBox="0 0 418.1 611.37"><defs><style>.cls-1{fill:none;stroke-width:13px;}.cls-1,.cls-2{stroke:#e51f38;stroke-miterlimit:8;}.cls-2{fill:#fff;stroke-width:14px;}</style></defs><path class="cls-1" d="M328.75,670.68c-.48,2.15-2,2.47-3.29.71L272,600.6a4.92,4.92,0,0,0-6-1.35l-78.67,40.94c-1.95,1-3.15.09-2.67-2.05l56.49-250a4,4,0,0,1,4.78-3l136.21,30.78a4,4,0,0,1,3,4.78Z" transform="translate(-169.02 -67.65)"/><path class="cls-1" d="M425.44,670.68c.49,2.15,2,2.47,3.29.71l53.43-70.79a4.91,4.91,0,0,1,6-1.35l78.67,40.94c2,1,3.15.09,2.67-2.05L513,388.16a4,4,0,0,0-4.79-3L372,415.92a4,4,0,0,0-3,4.78Z" transform="translate(-169.02 -67.65)"/><circle class="cls-2" cx="209.05" cy="209.05" r="202.05"/></svg>