<svg width="133" height="30" viewBox="0 0 133 30" fill="none" xmlns="http://www.w3.org/2000/svg">
<path d="M42.5077 22.3682V16.8272H37.6005V22.3682H34.9238V9.00684H37.6005V14.4693H42.5077V9.00684H45.1843V22.3682H42.5077ZM49.8372 18.5759C49.8502 19.1785 50.0053 19.6174 50.3027 19.8924C50.6132 20.1544 51.0527 20.2854 51.6218 20.2854C52.8243 20.2854 53.8976 20.2461 54.8414 20.1675L55.3845 20.1086L55.4232 22.0538C53.9363 22.4206 52.5915 22.604 51.3891 22.604C49.9279 22.604 48.8675 22.211 48.208 21.4251C47.5487 20.6391 47.2188 19.3619 47.2188 17.5935C47.2188 14.0698 48.6478 12.3079 51.5055 12.3079C54.3242 12.3079 55.7337 13.7881 55.7337 16.7486L55.5396 18.5759H49.8372ZM53.1734 16.5717C53.1734 15.7858 53.0505 15.2422 52.8048 14.9409C52.5593 14.6265 52.126 14.4693 51.5055 14.4693C50.8976 14.4693 50.4646 14.633 50.2058 14.9605C49.9601 15.2749 49.8307 15.812 49.818 16.5717H53.1734ZM65.0198 15.6089V19.6959C65.0455 20.0103 65.0974 20.233 65.1748 20.364C65.2525 20.4819 65.4141 20.5671 65.6598 20.6195L65.5822 22.604C64.9229 22.604 64.3927 22.5582 63.9919 22.4665C63.6038 22.3748 63.2095 22.1914 62.8086 21.9163C61.8776 22.3748 60.9272 22.604 59.9574 22.604C57.9531 22.604 56.9512 21.5299 56.9512 19.3816C56.9512 18.3336 57.2291 17.5935 57.785 17.1612C58.3412 16.7158 59.1945 16.4538 60.3453 16.3753L62.4208 16.218V15.6089C62.4208 15.2029 62.3301 14.9278 62.1491 14.7837C61.968 14.6265 61.6771 14.5479 61.2763 14.5479L57.6299 14.7051L57.5523 12.8777C58.9358 12.4978 60.2484 12.3079 61.4898 12.3079C62.744 12.3079 63.6427 12.5699 64.1857 13.0938C64.7418 13.6178 65.0198 14.4562 65.0198 15.6089ZM60.6557 18.2026C59.9315 18.2681 59.5696 18.6611 59.5696 19.3816C59.5696 20.102 59.8863 20.4623 60.5198 20.4623C61.0113 20.4623 61.548 20.3837 62.1299 20.2265L62.4208 20.1479V18.0454L60.6557 18.2026ZM67.4974 22.3682V12.5437H70.0771V13.5851C71.1632 12.9301 72.1976 12.5044 73.1803 12.3079V14.9605C72.1329 15.1832 71.2344 15.4124 70.4845 15.6482L70.0964 15.7858V22.3682H67.4974ZM80.0867 14.7837H77.701V18.8117C77.701 19.2047 77.7075 19.4864 77.7205 19.6567C77.7462 19.8138 77.8174 19.9514 77.9338 20.0693C78.0631 20.1872 78.2569 20.2461 78.5156 20.2461L79.9898 20.2068L80.1062 22.3093C79.2396 22.5058 78.5803 22.604 78.1278 22.604C76.964 22.604 76.1686 22.342 75.7421 21.818C75.3153 21.281 75.1021 20.2985 75.1021 18.8707V14.7837H73.9575V12.5437H75.1021V9.81244H77.701V12.5437H80.0867V14.7837Z" fill="#FD7B1D"/>
<path d="M87.1765 17.7904H83.7627V22.3687H82.2693V8.77147H87.1765C88.6377 8.77147 89.7173 9.13171 90.4155 9.85215C91.1138 10.5726 91.4629 11.673 91.4629 13.1532C91.4629 16.2447 90.0342 17.7904 87.1765 17.7904ZM83.7627 16.4543H87.157C89.0061 16.4543 89.9306 15.3539 89.9306 13.1532C89.9306 12.1053 89.7108 11.3389 89.2713 10.8543C88.8315 10.3565 88.1267 10.1076 87.157 10.1076H83.7627V16.4543ZM93.0119 17.4367C93.0119 15.6421 93.3288 14.3453 93.9624 13.5462C94.5959 12.7471 95.6628 12.3476 97.1627 12.3476C98.6756 12.3476 99.7424 12.7471 100.363 13.5462C100.997 14.3453 101.313 15.6421 101.313 17.4367C101.313 19.2313 101.016 20.5347 100.421 21.3469C99.8263 22.1591 98.7402 22.5652 97.1627 22.5652C95.5851 22.5652 94.4991 22.1591 93.9042 21.3469C93.3093 20.5347 93.0119 19.2313 93.0119 17.4367ZM94.5055 17.4171C94.5055 18.8449 94.6736 19.847 95.0098 20.4234C95.3589 20.9998 96.0766 21.2879 97.1627 21.2879C98.2618 21.2879 98.9795 21.0063 99.3156 20.443C99.6518 19.8667 99.8198 18.858 99.8198 17.4171C99.8198 15.9761 99.6325 14.9871 99.2574 14.45C98.8826 13.8999 98.1843 13.6248 97.1627 13.6248C96.154 13.6248 95.4558 13.8999 95.0679 14.45C94.6931 14.9871 94.5055 15.9761 94.5055 17.4171ZM103.686 22.3687V12.5441H105.141V22.3687H103.686ZM103.686 10.3237V8.61426H105.141V10.3237H103.686ZM109.383 22.3687H107.929V12.5441H109.364V13.2318C110.412 12.6423 111.414 12.3476 112.37 12.3476C113.664 12.3476 114.53 12.7013 114.969 13.4087C115.422 14.116 115.648 15.3736 115.648 17.1813V22.3687H114.213V17.2206C114.213 15.8582 114.077 14.9282 113.806 14.4304C113.547 13.9195 112.985 13.6641 112.118 13.6641C111.705 13.6641 111.265 13.7296 110.799 13.8606C110.347 13.9785 109.998 14.0964 109.752 14.2143L109.383 14.3911V22.3687ZM123.313 13.8213H120.229V18.5174C120.229 19.644 120.307 20.3841 120.462 20.7378C120.63 21.0915 121.018 21.2683 121.626 21.2683L123.352 21.1504L123.449 22.3687C122.583 22.5128 121.923 22.5848 121.471 22.5848C120.462 22.5848 119.764 22.3359 119.376 21.8381C118.988 21.3403 118.794 20.3907 118.794 18.989V13.8213H117.417V12.5441H118.794V9.53778H120.229V12.5441H123.313V13.8213ZM128.135 13.6641C126.725 13.6641 126.021 14.1619 126.021 15.1574C126.021 15.6159 126.182 15.9434 126.506 16.1399C126.829 16.3233 127.566 16.5198 128.717 16.7294C129.867 16.9258 130.682 17.2075 131.161 17.5743C131.639 17.941 131.878 18.6288 131.878 19.6374C131.878 20.6461 131.555 21.3862 130.908 21.8578C130.275 22.3294 129.344 22.5652 128.115 22.5652C127.314 22.5652 126.37 22.4734 125.284 22.29L124.702 22.1918L124.779 20.9146C126.253 21.1373 127.365 21.2487 128.115 21.2487C128.865 21.2487 129.434 21.1308 129.822 20.895C130.223 20.6461 130.423 20.24 130.423 19.6767C130.423 19.1003 130.255 18.7139 129.919 18.5174C129.583 18.3078 128.846 18.1113 127.708 17.9279C126.57 17.7445 125.762 17.476 125.284 17.1223C124.805 16.7687 124.566 16.1137 124.566 15.1574C124.566 14.2012 124.896 13.4938 125.555 13.0353C126.227 12.5768 127.061 12.3476 128.057 12.3476C128.846 12.3476 129.835 12.4393 131.025 12.6227L131.568 12.7209L131.529 13.9785C130.094 13.7689 128.962 13.6641 128.135 13.6641Z" fill="#FD7B1D"/>
<path d="M14.5122 21.0894C14.3183 21.2016 14.0793 21.2016 13.8853 21.0894C12.3683 20.2122 6.52186 16.549 7.90727 12.9666C8.98095 10.1911 12.1293 10.1069 13.733 11.8297C13.9858 12.1034 14.4118 12.1034 14.6646 11.8297C16.2683 10.1069 19.4166 10.1911 20.4903 12.9666C21.8757 16.549 16.0293 20.2122 14.5122 21.0894ZM14.3737 0.391113C6.43525 0.391113 0 6.91042 0 14.9525C0 22.9946 6.43525 29.514 14.3737 29.514C22.3121 29.514 28.7475 22.9946 28.7475 14.9525C28.7475 6.91042 22.3121 0.391113 14.3737 0.391113Z" fill="#FD7B1D"/>
</svg>
