<svg width="2003" height="446" viewBox="0 0 2003 446" fill="none" xmlns="http://www.w3.org/2000/svg">
<path d="M640.171 332.544V250.167H566.267V332.544H525.957V133.905H566.267V215.113H640.171V133.905H680.481V332.544H640.171ZM750.555 276.166C750.751 285.124 753.086 291.648 757.566 295.737C762.241 299.633 768.86 301.58 777.431 301.58C795.541 301.58 811.705 300.996 825.918 299.827L834.098 298.951L834.681 327.87C812.288 333.323 792.035 336.05 773.926 336.05C751.921 336.05 735.951 330.207 726.018 318.523C716.09 306.838 711.121 287.85 711.121 261.56C711.121 209.174 732.642 182.98 775.679 182.98C818.129 182.98 839.356 204.987 839.356 248.999L836.434 276.166H750.555ZM800.798 246.37C800.798 234.685 798.948 226.603 795.247 222.124C791.55 217.45 785.025 215.113 775.679 215.113C766.524 215.113 760.003 217.547 756.106 222.416C752.406 227.09 750.457 235.074 750.266 246.37H800.798ZM979.206 232.056V292.816C979.594 297.49 980.376 300.801 981.542 302.748C982.712 304.501 985.145 305.767 988.846 306.546L987.676 336.05C977.747 336.05 969.762 335.368 963.726 334.005C957.881 332.642 951.943 329.915 945.906 325.826C931.885 332.642 917.571 336.05 902.967 336.05C872.781 336.05 857.692 320.08 857.692 288.143C857.692 272.563 861.878 261.56 870.25 255.133C878.626 248.512 891.477 244.617 908.808 243.449L940.066 241.111V232.056C940.066 226.019 938.7 221.929 935.974 219.787C933.247 217.45 928.865 216.282 922.829 216.282L867.915 218.619L866.745 191.452C887.581 185.804 907.349 182.98 926.045 182.98C944.932 182.98 958.468 186.875 966.644 194.665C975.02 202.455 979.206 214.918 979.206 232.056ZM913.483 270.616C902.576 271.589 897.126 277.432 897.126 288.143C897.126 298.853 901.895 304.209 911.437 304.209C918.839 304.209 926.921 303.041 935.684 300.703L940.066 299.535V268.278L913.483 270.616ZM1016.52 332.544V186.486H1055.37V201.968C1071.73 192.231 1087.31 185.901 1102.11 182.98V222.416C1086.33 225.727 1072.8 229.135 1061.51 232.64L1055.66 234.685V332.544H1016.52ZM1206.12 219.787H1170.19V279.671C1170.19 285.513 1170.29 289.7 1170.48 292.232C1170.87 294.569 1171.94 296.614 1173.69 298.367C1175.64 300.119 1178.56 300.996 1182.46 300.996L1204.66 300.411L1206.41 331.668C1193.36 334.589 1183.43 336.05 1176.62 336.05C1159.09 336.05 1147.11 332.155 1140.69 324.365C1134.26 316.38 1131.05 301.774 1131.05 280.547V219.787H1113.81V186.486H1131.05V145.881H1170.19V186.486H1206.12V219.787Z" fill="#FD7B1D"/>
<path d="M1312.89 264.48H1261.48V332.544H1238.99V130.399H1312.89C1334.9 130.399 1351.15 135.754 1361.67 146.465C1372.19 157.176 1377.44 173.534 1377.44 195.541C1377.44 241.5 1355.93 264.48 1312.89 264.48ZM1261.48 244.616H1312.6C1340.44 244.616 1354.37 228.258 1354.37 195.541C1354.37 179.961 1351.06 168.569 1344.44 161.363C1337.81 153.963 1327.2 150.263 1312.6 150.263H1261.48V244.616ZM1400.77 259.222C1400.77 232.542 1405.54 213.262 1415.09 201.383C1424.63 189.504 1440.69 183.564 1463.28 183.564C1486.07 183.564 1502.13 189.504 1511.48 201.383C1521.02 213.262 1525.79 232.542 1525.79 259.222C1525.79 285.902 1521.32 305.279 1512.36 317.353C1503.4 329.428 1487.04 335.465 1463.28 335.465C1439.53 335.465 1423.17 329.428 1414.21 317.353C1405.25 305.279 1400.77 285.902 1400.77 259.222ZM1423.27 258.93C1423.27 280.157 1425.8 295.055 1430.86 303.624C1436.12 312.193 1446.93 316.477 1463.28 316.477C1479.84 316.477 1490.64 312.29 1495.71 303.916C1500.77 295.347 1503.3 280.352 1503.3 258.93C1503.3 237.508 1500.48 222.805 1494.83 214.82C1489.19 206.641 1478.67 202.551 1463.28 202.551C1448.09 202.551 1437.58 206.641 1431.74 214.82C1426.09 222.805 1423.27 237.508 1423.27 258.93ZM1561.52 332.544V186.485H1583.43V332.544H1561.52ZM1561.52 153.476V128.062H1583.43V153.476H1561.52ZM1647.33 332.544H1625.42V186.485H1647.04V196.709C1662.81 187.946 1677.91 183.564 1692.31 183.564C1711.79 183.564 1724.84 188.822 1731.45 199.338C1738.27 209.854 1741.68 228.55 1741.68 255.425V332.544H1720.06V256.009C1720.06 235.755 1718.02 221.929 1713.93 214.528C1710.04 206.933 1701.57 203.136 1688.52 203.136C1682.29 203.136 1675.66 204.11 1668.65 206.057C1661.84 207.809 1656.58 209.562 1652.88 211.315L1647.33 213.944V332.544ZM1857.11 205.473H1810.67V275.288C1810.67 292.037 1811.84 303.04 1814.17 308.298C1816.71 313.556 1822.55 316.185 1831.7 316.185L1857.7 314.432L1859.16 332.544C1846.11 334.686 1836.18 335.757 1829.36 335.757C1814.17 335.757 1803.66 332.057 1797.82 324.656C1791.97 317.256 1789.05 303.137 1789.05 282.299V205.473H1768.31V186.485H1789.05V141.791H1810.67V186.485H1857.11V205.473ZM1929.73 203.136C1908.5 203.136 1897.89 210.536 1897.89 225.336C1897.89 232.153 1900.32 237.021 1905.19 239.943C1910.06 242.669 1921.16 245.59 1938.49 248.706C1955.82 251.627 1968.09 255.814 1975.3 261.267C1982.5 266.72 1986.1 276.944 1986.1 291.939C1986.1 306.935 1981.23 317.938 1971.5 324.949C1961.96 331.959 1947.94 335.465 1929.43 335.465C1917.36 335.465 1903.15 334.101 1886.79 331.375L1878.03 329.915L1879.19 310.927C1901.39 314.238 1918.14 315.893 1929.43 315.893C1940.73 315.893 1949.3 314.14 1955.14 310.635C1961.18 306.935 1964.19 300.897 1964.19 292.524C1964.19 283.955 1961.66 278.21 1956.6 275.288C1951.54 272.173 1940.44 269.251 1923.3 266.525C1906.16 263.798 1893.99 259.806 1886.79 254.548C1879.58 249.29 1875.98 239.553 1875.98 225.336C1875.98 211.12 1880.94 200.604 1890.88 193.788C1901 186.972 1913.56 183.564 1928.56 183.564C1940.44 183.564 1955.33 184.927 1973.25 187.653L1981.43 189.114L1980.84 207.809C1959.23 204.694 1942.19 203.136 1929.73 203.136Z" fill="#FD7B1D"/>
<path d="M218.557 313.528C215.635 315.197 212.036 315.197 209.115 313.528C186.268 300.486 98.2202 246.027 119.085 192.768C135.255 151.507 182.669 150.255 206.82 175.867C210.628 179.936 217.044 179.936 220.851 175.867C245.003 150.255 292.417 151.507 308.587 192.768C329.452 246.027 241.403 300.486 218.557 313.528ZM216.47 5.81348C96.9159 5.81348 0 102.734 0 222.293C0 341.852 96.9159 438.774 216.47 438.774C336.024 438.774 432.941 341.852 432.941 222.293C432.941 102.734 336.024 5.81348 216.47 5.81348Z" fill="#FD7B1D"/>
</svg>
