<svg width="30" height="30" viewBox="0 0 30 30" fill="none" xmlns="http://www.w3.org/2000/svg">
<path d="M15.1445 21.3216C14.9421 21.4373 14.6927 21.4373 14.4903 21.3216C12.9072 20.418 6.80601 16.6445 8.25178 12.9542C9.37225 10.0951 12.6578 10.0084 14.3313 11.7831C14.5951 12.065 15.0397 12.065 15.3036 11.7831C16.9771 10.0084 20.2626 10.0951 21.3831 12.9542C22.8288 16.6445 16.7277 20.418 15.1445 21.3216ZM14.9999 0C6.71563 0 0 6.71565 0 15C0 23.2843 6.71563 30 14.9999 30C23.2843 30 30 23.2843 30 15C30 6.71565 23.2843 0 14.9999 0Z" fill="#FD7B1D"/>
</svg>
