<svg width="433" height="434" viewBox="0 0 433 434" fill="none" xmlns="http://www.w3.org/2000/svg">
<path d="M218.557 308.528C215.635 310.197 212.036 310.197 209.115 308.528C186.268 295.486 98.2202 241.027 119.085 187.768C135.255 146.507 182.669 145.255 206.82 170.867C210.628 174.936 217.044 174.936 220.851 170.867C245.003 145.255 292.417 146.507 308.587 187.768C329.452 241.027 241.403 295.486 218.557 308.528ZM216.47 0.813477C96.9159 0.813477 0 97.7339 0 217.293C0 336.852 96.9159 433.774 216.47 433.774C336.024 433.774 432.941 336.852 432.941 217.293C432.941 97.7339 336.024 0.813477 216.47 0.813477Z" fill="#FD7B1D"/>
</svg>
