<svg xmlns="http://www.w3.org/2000/svg" width="151.619" height="75.111" viewBox="0 0 151.619 75.111">
  <g id="Gruppe_3081" data-name="Gruppe 3081" transform="translate(-1472.127 -453.367)">
    <g id="Gruppe_17151" data-name="Gruppe 17151" style="isolation: isolate">
      <path id="Pfad_15448" data-name="Pfad 15448" d="M1480.639,524.159a2.447,2.447,0,0,1,.476,1.533,2.265,2.265,0,0,1-1,1.981,5.114,5.114,0,0,1-2.919.693h-5.068v-9.8h4.789a4.688,4.688,0,0,1,2.75.686,2.171,2.171,0,0,1,.959,1.862,2.355,2.355,0,0,1-1.3,2.157A2.576,2.576,0,0,1,1480.639,524.159Zm-6.258-3.885v2.31h2.254a2.275,2.275,0,0,0,1.274-.294.98.98,0,0,0,.435-.868.961.961,0,0,0-.435-.86,2.313,2.313,0,0,0-1.274-.288Zm4,6.09a1.007,1.007,0,0,0,.455-.91q0-1.216-1.807-1.218h-2.646v2.422h2.646A2.511,2.511,0,0,0,1478.379,526.364Z" fill="#fff"/>
      <path id="Pfad_15449" data-name="Pfad 15449" d="M1490.271,520.834v7.532H1488.2v-.9a2.884,2.884,0,0,1-1.036.749,3.251,3.251,0,0,1-1.3.26,3.207,3.207,0,0,1-2.351-.855,3.4,3.4,0,0,1-.869-2.534v-4.256h2.184v3.935q0,1.818,1.527,1.819a1.638,1.638,0,0,0,1.259-.511,2.152,2.152,0,0,0,.477-1.518v-3.725Z" fill="#fff"/>
      <path id="Pfad_15450" data-name="Pfad 15450" d="M1498.664,521.205a3.481,3.481,0,0,1,1.352,1.358,4.481,4.481,0,0,1,0,4.075,3.479,3.479,0,0,1-1.352,1.357,3.838,3.838,0,0,1-1.91.484,2.9,2.9,0,0,1-2.366-.981v.868H1492.3V517.979h2.184v3.653a2.909,2.909,0,0,1,2.269-.909A3.836,3.836,0,0,1,1498.664,521.205Zm-.91,4.914a2.41,2.41,0,0,0,0-3.038,1.963,1.963,0,0,0-2.758,0,2.41,2.41,0,0,0,0,3.038,1.958,1.958,0,0,0,2.758,0Z" fill="#fff"/>
      <path id="Pfad_15451" data-name="Pfad 15451" d="M1509.3,525.216h-5.7a1.763,1.763,0,0,0,.727,1.106,2.411,2.411,0,0,0,1.428.407,2.9,2.9,0,0,0,1.044-.176,2.511,2.511,0,0,0,.846-.553l1.162,1.26a3.9,3.9,0,0,1-3.108,1.219,4.909,4.909,0,0,1-2.254-.5,3.629,3.629,0,0,1-1.511-1.378,3.79,3.79,0,0,1-.533-2,3.852,3.852,0,0,1,.525-2,3.689,3.689,0,0,1,1.442-1.386,4.473,4.473,0,0,1,4.053-.021,3.48,3.48,0,0,1,1.407,1.365,4.069,4.069,0,0,1,.512,2.065C1509.34,524.656,1509.325,524.853,1509.3,525.216Zm-5.109-2.422a1.791,1.791,0,0,0-.617,1.148h3.71a1.8,1.8,0,0,0-.616-1.141,1.845,1.845,0,0,0-1.231-.427A1.882,1.882,0,0,0,1504.188,522.794Z" fill="#fff"/>
      <path id="Pfad_15452" data-name="Pfad 15452" d="M1517.635,521.563a3.332,3.332,0,0,1,.86,2.492v4.311h-2.184v-3.975a1.968,1.968,0,0,0-.392-1.338,1.438,1.438,0,0,0-1.134-.441,1.737,1.737,0,0,0-1.316.511,2.12,2.12,0,0,0-.49,1.52v3.723H1510.8v-7.532h2.086v.882a2.9,2.9,0,0,1,1.078-.735,3.769,3.769,0,0,1,1.414-.258A3.1,3.1,0,0,1,1517.635,521.563Z" fill="#fff"/>
      <path id="Pfad_15453" data-name="Pfad 15453" d="M1532.02,520.834v7.532h-2.073v-.9a2.88,2.88,0,0,1-1.037.749,3.243,3.243,0,0,1-1.3.26,3.21,3.21,0,0,1-2.352-.855,3.4,3.4,0,0,1-.868-2.534v-4.256h2.183v3.935q0,1.818,1.527,1.819a1.641,1.641,0,0,0,1.26-.511,2.157,2.157,0,0,0,.476-1.518v-3.725Z" fill="#fff"/>
      <path id="Pfad_15454" data-name="Pfad 15454" d="M1540.888,521.563a3.332,3.332,0,0,1,.86,2.492v4.311h-2.184v-3.975a1.964,1.964,0,0,0-.392-1.338,1.436,1.436,0,0,0-1.133-.441,1.735,1.735,0,0,0-1.316.511,2.116,2.116,0,0,0-.491,1.52v3.723h-2.183v-7.532h2.086v.882a2.9,2.9,0,0,1,1.078-.735,3.765,3.765,0,0,1,1.414-.258A3.1,3.1,0,0,1,1540.888,521.563Z" fill="#fff"/>
      <path id="Pfad_15455" data-name="Pfad 15455" d="M1551.479,517.979v10.387h-2.086V527.5a2.882,2.882,0,0,1-2.352.981,3.921,3.921,0,0,1-1.926-.477,3.416,3.416,0,0,1-1.35-1.357,4.508,4.508,0,0,1,0-4.088,3.415,3.415,0,0,1,1.35-1.359,3.919,3.919,0,0,1,1.926-.475,2.863,2.863,0,0,1,2.254.909v-3.653Zm-2.688,8.14a2.386,2.386,0,0,0,0-3.038,1.963,1.963,0,0,0-2.758,0,2.383,2.383,0,0,0,0,3.038,1.958,1.958,0,0,0,2.758,0Z" fill="#fff"/>
      <path id="Pfad_15456" data-name="Pfad 15456" d="M1566.528,528.366l-.014-5.88-2.883,4.844h-1.023l-2.87-4.718v5.754h-2.128v-9.8h1.876l3.668,6.09,3.612-6.09h1.863l.027,9.8Z" fill="#fff"/>
      <path id="Pfad_15457" data-name="Pfad 15457" d="M1576.552,521.556a3.181,3.181,0,0,1,.938,2.512v4.3h-2.045v-.938a2.432,2.432,0,0,1-2.295,1.051,3.575,3.575,0,0,1-1.505-.294,2.252,2.252,0,0,1-.973-.813,2.1,2.1,0,0,1-.336-1.176,1.963,1.963,0,0,1,.791-1.652,4.034,4.034,0,0,1,2.443-.6h1.736a1.393,1.393,0,0,0-.434-1.1,1.917,1.917,0,0,0-1.3-.385,3.793,3.793,0,0,0-1.183.189,3.12,3.12,0,0,0-.987.511l-.785-1.526a4.766,4.766,0,0,1,1.478-.672,6.638,6.638,0,0,1,1.77-.237A3.92,3.92,0,0,1,1576.552,521.556Zm-4.578-2.031a.994.994,0,0,1,0-1.385.96.96,0,0,1,.7-.274.966.966,0,1,1,0,1.932A.963.963,0,0,1,1571.974,519.525Zm2.715,7.224a1.416,1.416,0,0,0,.617-.763v-.77h-1.5q-1.345,0-1.345.883a.786.786,0,0,0,.329.665,1.481,1.481,0,0,0,.9.244A1.9,1.9,0,0,0,1574.689,526.749Zm.12-7.224a.967.967,0,0,1,.693-1.659.956.956,0,0,1,.7.274.994.994,0,0,1,0,1.385.96.96,0,0,1-.7.273A.938.938,0,0,1,1574.809,519.525Z" fill="#fff"/>
      <path id="Pfad_15458" data-name="Pfad 15458" d="M1587.221,517.979v10.387h-2.086V527.5a2.884,2.884,0,0,1-2.353.981,3.917,3.917,0,0,1-1.925-.477,3.406,3.406,0,0,1-1.351-1.357,4.508,4.508,0,0,1,0-4.088,3.4,3.4,0,0,1,1.351-1.359,3.915,3.915,0,0,1,1.925-.475,2.865,2.865,0,0,1,2.254.909v-3.653Zm-2.689,8.14a2.386,2.386,0,0,0,0-3.038,1.824,1.824,0,0,0-1.372-.566,1.846,1.846,0,0,0-1.387.566,2.393,2.393,0,0,0,0,3.038,1.848,1.848,0,0,0,1.387.568A1.825,1.825,0,0,0,1584.532,526.119Z" fill="#fff"/>
      <path id="Pfad_15459" data-name="Pfad 15459" d="M1590.713,527.981a3.718,3.718,0,0,1-1.5-1.378,3.988,3.988,0,0,1,0-4,3.716,3.716,0,0,1,1.5-1.38,4.629,4.629,0,0,1,2.162-.5,4.2,4.2,0,0,1,2.08.5,2.953,2.953,0,0,1,1.3,1.422l-1.694.909a1.851,1.851,0,0,0-1.7-1.035,1.917,1.917,0,0,0-1.414.559,2.362,2.362,0,0,0,0,3.052,1.915,1.915,0,0,0,1.414.561,1.835,1.835,0,0,0,1.7-1.037l1.694.924a3.011,3.011,0,0,1-1.3,1.4,4.15,4.15,0,0,1-2.08.5A4.618,4.618,0,0,1,1590.713,527.981Z" fill="#fff"/>
      <path id="Pfad_15460" data-name="Pfad 15460" d="M1604.293,521.563a3.329,3.329,0,0,1,.861,2.492v4.311h-2.184v-3.975a1.969,1.969,0,0,0-.392-1.338,1.44,1.44,0,0,0-1.135-.441,1.736,1.736,0,0,0-1.315.511,2.116,2.116,0,0,0-.49,1.52v3.723h-2.185V517.979h2.185v3.639a2.9,2.9,0,0,1,1.05-.665,3.8,3.8,0,0,1,1.343-.23A3.1,3.1,0,0,1,1604.293,521.563Z" fill="#fff"/>
      <path id="Pfad_15461" data-name="Pfad 15461" d="M1614.548,525.216h-5.7a1.768,1.768,0,0,0,.728,1.106,2.409,2.409,0,0,0,1.428.407,2.89,2.89,0,0,0,1.043-.176,2.514,2.514,0,0,0,.847-.553l1.162,1.26a3.907,3.907,0,0,1-3.109,1.219,4.912,4.912,0,0,1-2.254-.5,3.641,3.641,0,0,1-1.511-1.378,3.79,3.79,0,0,1-.532-2,3.843,3.843,0,0,1,.525-2,3.69,3.69,0,0,1,1.442-1.386,4.473,4.473,0,0,1,4.053-.021,3.472,3.472,0,0,1,1.406,1.365,4.058,4.058,0,0,1,.512,2.065C1614.59,524.656,1614.576,524.853,1614.548,525.216Zm-5.11-2.422a1.786,1.786,0,0,0-.616,1.148h3.709a1.8,1.8,0,0,0-.615-1.141,1.845,1.845,0,0,0-1.232-.427A1.884,1.884,0,0,0,1609.438,522.794Z" fill="#fff"/>
      <path id="Pfad_15462" data-name="Pfad 15462" d="M1622.885,521.563a3.329,3.329,0,0,1,.861,2.492v4.311h-2.184v-3.975a1.969,1.969,0,0,0-.392-1.338,1.44,1.44,0,0,0-1.135-.441,1.735,1.735,0,0,0-1.315.511,2.116,2.116,0,0,0-.491,1.52v3.723h-2.184v-7.532h2.087v.882a2.9,2.9,0,0,1,1.077-.735,3.773,3.773,0,0,1,1.414-.258A3.1,3.1,0,0,1,1622.885,521.563Z" fill="#fff"/>
    </g>
    <path id="Oval" d="M1548.257,504.2a25.418,25.418,0,1,0-25.418-25.418h0A25.418,25.418,0,0,0,1548.257,504.2Z" fill="#ea1d25" fill-rule="evenodd"/>
    <path id="Ausschluss_4" data-name="Ausschluss 4" d="M1537.7,493.73h0l2.025-11.579-8.577-8.2L1543,472.266l5.3-10.7,5.3,10.7,11.852,1.686-8.579,8.2,2.025,11.577-10.6-5.463-10.6,5.469Zm4.842-16.374v2.828h4.317v4.236h2.879v-4.237h4.317v-2.826h-4.317v-4.236h-2.879v4.236h-4.317Z" fill="#fff"/>
  </g>
</svg>
