<svg xmlns="http://www.w3.org/2000/svg" viewBox="0 0 199.91 39.83"><defs><style>.cls-1{isolation:isolate;}.cls-2{fill:#21272e;}.cls-3{fill:#e52428;fill-rule:evenodd;}.cls-4{fill:#fff;}</style></defs><g id="Ebene_2" data-name="Ebene 2"><g id="Ebene_1-2" data-name="Ebene 1"><g class="cls-1"><path class="cls-2" d="M56.8,20.8a2.41,2.41,0,0,1,.48,1.53,2.28,2.28,0,0,1-1,2,5.14,5.14,0,0,1-2.92.69H48.29V15.2h4.79a4.67,4.67,0,0,1,2.75.69,2.18,2.18,0,0,1,1,1.86,2.34,2.34,0,0,1-1.3,2.16A2.57,2.57,0,0,1,56.8,20.8Zm-6.26-3.89v2.31H52.8a2.32,2.32,0,0,0,1.27-.29,1,1,0,0,0,.44-.87,1,1,0,0,0-.44-.86,2.32,2.32,0,0,0-1.27-.29Zm4,6.09a1,1,0,0,0,.46-.91c0-.81-.61-1.22-1.81-1.22H50.54V23.3h2.65A2.45,2.45,0,0,0,54.54,23Z"/><path class="cls-2" d="M66.43,17.47V25H64.36v-.89a3.07,3.07,0,0,1-1,.75,3.37,3.37,0,0,1-1.31.26,3.2,3.2,0,0,1-2.35-.86,3.39,3.39,0,0,1-.87-2.53V17.47H61v3.94c0,1.21.51,1.82,1.52,1.82a1.59,1.59,0,0,0,1.26-.52,2.12,2.12,0,0,0,.48-1.51V17.47Z"/><path class="cls-2" d="M74.83,17.84a3.6,3.6,0,0,1,1.35,1.36,4.16,4.16,0,0,1,.49,2,4.22,4.22,0,0,1-.49,2,3.5,3.5,0,0,1-1.35,1.35,3.77,3.77,0,0,1-1.91.49,2.91,2.91,0,0,1-2.37-1V25H68.46V14.62h2.19v3.65a2.89,2.89,0,0,1,2.27-.91A3.87,3.87,0,0,1,74.83,17.84Zm-.91,4.92a2.41,2.41,0,0,0,0-3,2,2,0,0,0-2.76,0,2.41,2.41,0,0,0,0,3,2,2,0,0,0,2.76,0Z"/><path class="cls-2" d="M85.46,21.85h-5.7A1.78,1.78,0,0,0,80.49,23a2.42,2.42,0,0,0,1.43.41,2.8,2.8,0,0,0,1-.18,2.63,2.63,0,0,0,.85-.55L85,23.9a3.92,3.92,0,0,1-3.11,1.22,4.91,4.91,0,0,1-2.25-.5,3.55,3.55,0,0,1-1.51-1.38,3.77,3.77,0,0,1-.54-2,3.88,3.88,0,0,1,.53-2,3.68,3.68,0,0,1,1.44-1.38,4.26,4.26,0,0,1,2-.5,4.14,4.14,0,0,1,2,.48A3.42,3.42,0,0,1,85,19.2a4.07,4.07,0,0,1,.51,2.07S85.49,21.49,85.46,21.85Zm-5.11-2.42a1.79,1.79,0,0,0-.62,1.15h3.71a1.78,1.78,0,0,0-.61-1.14A1.83,1.83,0,0,0,81.6,19,1.89,1.89,0,0,0,80.35,19.43Z"/><path class="cls-2" d="M93.8,18.2a3.34,3.34,0,0,1,.86,2.49V25H92.47V21a2,2,0,0,0-.39-1.34A1.45,1.45,0,0,0,91,19.25a1.76,1.76,0,0,0-1.32.51,2.11,2.11,0,0,0-.49,1.52V25H87V17.47H89v.88a3,3,0,0,1,1.08-.73,3.82,3.82,0,0,1,1.42-.26A3.11,3.11,0,0,1,93.8,18.2Z"/><path class="cls-2" d="M108.18,17.47V25h-2.07v-.89a3.11,3.11,0,0,1-1,.75,3.28,3.28,0,0,1-1.3.26,3.2,3.2,0,0,1-2.35-.86,3.39,3.39,0,0,1-.87-2.53V17.47h2.19v3.94c0,1.21.5,1.82,1.52,1.82a1.62,1.62,0,0,0,1.26-.52A2.12,2.12,0,0,0,106,21.2V17.47Z"/><path class="cls-2" d="M117.05,18.2a3.34,3.34,0,0,1,.86,2.49V25h-2.18V21a1.93,1.93,0,0,0-.4-1.34,1.43,1.43,0,0,0-1.13-.44,1.72,1.72,0,0,0-1.31.51,2.11,2.11,0,0,0-.49,1.52V25h-2.19V17.47h2.09v.88a3,3,0,0,1,1.07-.73,3.86,3.86,0,0,1,1.42-.26A3.1,3.1,0,0,1,117.05,18.2Z"/><path class="cls-2" d="M127.64,14.62V25h-2.08v-.86a2.91,2.91,0,0,1-2.36,1,3.85,3.85,0,0,1-1.92-.48,3.34,3.34,0,0,1-1.35-1.36,4.51,4.51,0,0,1,0-4.09,3.31,3.31,0,0,1,1.35-1.35,3.85,3.85,0,0,1,1.92-.48,2.87,2.87,0,0,1,2.26.91V14.62ZM125,22.76a2.09,2.09,0,0,0,.55-1.52,2.07,2.07,0,0,0-.55-1.52,1.94,1.94,0,0,0-2.75,0,2.07,2.07,0,0,0-.55,1.52,2.09,2.09,0,0,0,.55,1.52,2,2,0,0,0,2.75,0Z"/><path class="cls-2" d="M142.69,25V19.12L139.79,24h-1l-2.87-4.72V25h-2.13V15.2h1.88l3.67,6.09,3.61-6.09h1.86l0,9.8Z"/><path class="cls-2" d="M152.71,18.19a3.2,3.2,0,0,1,.94,2.52V25h-2v-.93a2.44,2.44,0,0,1-2.3,1.05,3.46,3.46,0,0,1-1.5-.3,2.19,2.19,0,0,1-1-.81,2.14,2.14,0,0,1-.33-1.18,2,2,0,0,1,.79-1.65,4,4,0,0,1,2.44-.6h1.74a1.39,1.39,0,0,0-.44-1.1,1.89,1.89,0,0,0-1.3-.38,3.69,3.69,0,0,0-1.18.19,2.9,2.9,0,0,0-1,.51l-.78-1.53a4.69,4.69,0,0,1,1.48-.67,6.52,6.52,0,0,1,1.77-.24A3.93,3.93,0,0,1,152.71,18.19Zm-4.57-2a1,1,0,0,1,0-1.38.93.93,0,0,1,.7-.28.9.9,0,0,1,.69.28,1,1,0,0,1-.69,1.66A1,1,0,0,1,148.14,16.16Zm2.71,7.23a1.44,1.44,0,0,0,.62-.77v-.77H150c-.89,0-1.34.3-1.34.89a.77.77,0,0,0,.33.66,1.48,1.48,0,0,0,.9.25A1.92,1.92,0,0,0,150.85,23.39Zm.12-7.23a1,1,0,0,1,0-1.38.9.9,0,0,1,.69-.28.93.93,0,0,1,.7.28,1,1,0,0,1,0,1.38,1,1,0,0,1-.7.28A.94.94,0,0,1,151,16.16Z"/><path class="cls-2" d="M163.38,14.62V25H161.3v-.86a2.91,2.91,0,0,1-2.36,1,3.85,3.85,0,0,1-1.92-.48,3.4,3.4,0,0,1-1.35-1.36,4.51,4.51,0,0,1,0-4.09A3.37,3.37,0,0,1,157,17.84a3.85,3.85,0,0,1,1.92-.48,2.85,2.85,0,0,1,2.26.91V14.62Zm-2.69,8.14a2.09,2.09,0,0,0,.55-1.52,2.07,2.07,0,0,0-.55-1.52,1.94,1.94,0,0,0-2.75,0,2.07,2.07,0,0,0-.55,1.52,2.09,2.09,0,0,0,.55,1.52,2,2,0,0,0,2.75,0Z"/><path class="cls-2" d="M166.88,24.62a3.71,3.71,0,0,1-1.5-1.38,3.77,3.77,0,0,1-.54-2,3.7,3.7,0,0,1,2-3.38,4.62,4.62,0,0,1,2.16-.5,4.24,4.24,0,0,1,2.08.5,2.92,2.92,0,0,1,1.29,1.42l-1.69.91a1.86,1.86,0,0,0-1.7-1,1.91,1.91,0,0,0-1.41.56,2.09,2.09,0,0,0-.56,1.53,2.06,2.06,0,0,0,.56,1.52,1.88,1.88,0,0,0,1.41.56,1.83,1.83,0,0,0,1.7-1l1.69.92a3,3,0,0,1-1.29,1.4,4.14,4.14,0,0,1-2.08.51A4.62,4.62,0,0,1,166.88,24.62Z"/><path class="cls-2" d="M180.45,18.2a3.31,3.31,0,0,1,.87,2.49V25h-2.19V21a2,2,0,0,0-.39-1.34,1.45,1.45,0,0,0-1.13-.44,1.76,1.76,0,0,0-1.32.51,2.11,2.11,0,0,0-.49,1.52V25h-2.18V14.62h2.18v3.64a3,3,0,0,1,1-.67,3.89,3.89,0,0,1,1.34-.23A3.08,3.08,0,0,1,180.45,18.2Z"/><path class="cls-2" d="M190.71,21.85H185a1.82,1.82,0,0,0,.73,1.11,2.42,2.42,0,0,0,1.43.41,2.8,2.8,0,0,0,1-.18,2.63,2.63,0,0,0,.85-.55l1.16,1.26a3.92,3.92,0,0,1-3.11,1.22,4.91,4.91,0,0,1-2.25-.5,3.55,3.55,0,0,1-1.51-1.38,3.77,3.77,0,0,1-.54-2,3.88,3.88,0,0,1,.53-2,3.68,3.68,0,0,1,1.44-1.38,4.26,4.26,0,0,1,2.05-.5,4.14,4.14,0,0,1,2,.48,3.42,3.42,0,0,1,1.41,1.36,4.07,4.07,0,0,1,.51,2.07S190.74,21.49,190.71,21.85Zm-5.11-2.42a1.79,1.79,0,0,0-.62,1.15h3.71a1.78,1.78,0,0,0-.61-1.14,1.83,1.83,0,0,0-1.23-.43A1.89,1.89,0,0,0,185.6,19.43Z"/><path class="cls-2" d="M199.05,18.2a3.34,3.34,0,0,1,.86,2.49V25h-2.19V21a2,2,0,0,0-.39-1.34,1.45,1.45,0,0,0-1.13-.44,1.76,1.76,0,0,0-1.32.51,2.15,2.15,0,0,0-.49,1.52V25h-2.18V17.47h2.08v.88a3,3,0,0,1,1.08-.73,3.82,3.82,0,0,1,1.42-.26A3.11,3.11,0,0,1,199.05,18.2Z"/></g><g id="Gruppe_538" data-name="Gruppe 538"><g id="Page-1"><path id="Oval" class="cls-3" d="M19.92,39.83A19.92,19.92,0,1,0,0,19.92H0A19.91,19.91,0,0,0,19.92,39.83Z"/></g><path id="Ausschluss_4" data-name="Ausschluss 4" class="cls-4" d="M11.65,31.62h0l1.58-9.07L6.51,16.13l9.29-1.32L20,6.42l4.16,8.39,9.28,1.32-6.72,6.42,1.58,9.07L20,27.34ZM15.44,18.8h0V21h3.38v3.32h2.26V21h3.38V18.8H21.08V15.48H18.82V18.8Z"/></g></g></g></svg>