<svg xmlns="http://www.w3.org/2000/svg" width="201.002" height="39.834" viewBox="0 0 201.002 39.834">
  <g id="Gruppe_3074" data-name="Gruppe 3074" transform="translate(-20.998 -19.996)">
    <text id="Buben_und_Mädchen" data-name="Buben und Mädchen" transform="translate(145 45)" fill="#fff" font-size="14" font-family="Montserrat-Bold, Montserrat" font-weight="700"><tspan x="-76.874" y="0">Buben und Mädchen</tspan></text>
    <g id="Gruppe_538" data-name="Gruppe 538" transform="translate(20.998 19.996)">
      <g id="Page-1">
        <path id="Oval" d="M19.917,39.834A19.917,19.917,0,1,0,0,19.917,19.917,19.917,0,0,0,19.917,39.834Z" fill="#ea1d25" fill-rule="evenodd"/>
      </g>
      <path id="Ausschluss_4" data-name="Ausschluss 4" d="M5.134,25.2h0L6.721,16.13,0,9.705,9.282,8.383,13.437,0l4.155,8.383,9.283,1.323L20.152,16.13,21.739,25.2l-8.3-4.284L5.134,25.2ZM8.928,12.372h0v2.215h3.383v3.319h2.256V14.588h3.383V12.373H14.566V9.054H12.311v3.319H8.928Z" transform="translate(6.513 6.425)" fill="#fff"/>
    </g>
  </g>
</svg>
