<svg xmlns="http://www.w3.org/2000/svg" width="154" height="78.999" viewBox="0 0 154 78.999">
  <g id="Gruppe_3077" data-name="Gruppe 3077" transform="translate(-53.126 -0.028)">
    <text id="Buben_und_Mädchen" data-name="Buben und Mädchen" transform="translate(53.126 75.027)" fill="#fff" font-size="14" font-family="Montserrat-Bold, Montserrat" font-weight="700"><tspan x="0" y="0">Buben und Mädchen</tspan></text>
    <g id="Gruppe_535" data-name="Gruppe 535" transform="translate(-819.467 -224.66)">
      <g id="Page-1" transform="translate(924.467 224.688)">
        <path id="Oval" d="M25.418,50.836A25.418,25.418,0,1,0,0,25.418,25.418,25.418,0,0,0,25.418,50.836Z" fill="#ea1d25" fill-rule="evenodd"/>
      </g>
      <path id="Ausschluss_4" data-name="Ausschluss 4" d="M6.552,32.164h0L8.577,20.585,0,12.386,11.846,10.7,17.148,0l5.3,10.7L34.3,12.386l-8.579,8.2,2.025,11.577L17.146,26.7l-10.6,5.469ZM11.394,15.79v2.828h4.317v4.236H18.59V18.617h4.317V15.791H18.59V11.555H15.711v4.236H11.394Z" transform="translate(932.779 232.887)" fill="#fff"/>
    </g>
  </g>
</svg>
