<svg xmlns="http://www.w3.org/2000/svg" width="40" height="40" viewBox="0 0 40 40">
  <g id="Gruppe_17160" data-name="Gruppe 17160" transform="translate(4071 13029)">
    <rect id="Rechteck_1591" data-name="Rechteck 1591" width="40" height="40" transform="translate(-4071 -13029)" fill="#fff" opacity="0"/>
    <g id="Gruppe_17159" data-name="Gruppe 17159" transform="translate(14.146 17.925)">
      <g id="Gruppe_368" data-name="Gruppe 368" transform="translate(-4084.533 -13046.313)">
        <g id="Page-1" transform="translate(0 0)">
          <path id="Oval" d="M19.387,38.775A19.387,19.387,0,1,0,0,19.387,19.387,19.387,0,0,0,19.387,38.775Z" fill="#ea1d25" fill-rule="evenodd"/>
        </g>
        <path id="Ausschluss_4" data-name="Ausschluss 4" d="M4.958,24.942h0L6.49,15.964,0,9.605,8.964,8.3,12.975,0l4.012,8.3,8.964,1.31-6.49,6.358,1.531,8.977L12.975,20.7l-8.016,4.24Zm3.663-12.7h0v2.191h3.267v3.284h2.178V14.438h3.267V12.246H14.065V8.961H11.888v3.285H8.621Z" transform="translate(6.446 6.074)" fill="#fff"/>
      </g>
    </g>
  </g>
</svg>
