<svg xmlns="http://www.w3.org/2000/svg" width="313" height="313" viewBox="0 0 313 313">
  <g id="Gruppe_1204" data-name="Gruppe 1204" transform="translate(-3061 14442)">
    <rect id="Rechteck_530" data-name="Rechteck 530" width="313" height="313" transform="translate(3061 -14442)" fill="none"/>
    <path id="Pfad_509" data-name="Pfad 509" d="M-414.3,43.177c-86.157,0-156,45.169-156,100.887s69.843,100.888,156,100.888,156-45.172,156-100.887S-328.145,43.177-414.3,43.177Zm0,158.466c-12.807,0-23.267-25.225-23.945-56.982,7.726.689,15.735,1.059,23.945,1.059s16.219-.365,23.945-1.059c-.674,31.756-11.139,56.982-23.945,56.982Zm-22.34-82.175c3.489-22.444,12.178-38.344,22.34-38.344s18.856,15.9,22.34,38.344c-7.146.647-14.632.991-22.34.991s-15.2-.344-22.345-.991Zm22.34-61.682c-16.75,0-31,25.038-36.269,59.977-31.722-4.954-53.871-16.206-53.871-29.295,0-17.667,40.357-31.99,90.14-31.99s90.139,14.322,90.139,31.99c0,13.089-22.149,24.341-53.871,29.295-5.271-34.939-19.519-59.977-36.268-59.977ZM-547.935,140.28c0-17.1,6.574-33.122,18.048-46.908a21.507,21.507,0,0,0-.2,2.923c0,21.553,32.315,39.883,77.391,46.648q-.052,2.346-.052,4.724c0,40.153,11.262,74.148,26.8,85.679C-494.3,229.217-547.935,189.127-547.935,140.28Zm145.275,93.059c15.542-11.532,26.8-45.53,26.8-85.679q0-2.377-.052-4.724c45.073-6.761,77.391-25.1,77.391-46.648a21.507,21.507,0,0,0-.2-2.923c11.474,13.786,18.047,29.81,18.047,46.908C-280.671,189.127-334.309,229.217-402.659,233.339Z" transform="translate(3631.303 -14429.564)" fill="currentColor"/>
  </g>
</svg>
