<svg xmlns="http://www.w3.org/2000/svg" width="87.908" height="61.42" viewBox="0 0 87.908 61.42">
  <g id="Gruppe_3079" data-name="Gruppe 3079" transform="translate(-116.504 -68.981)">
    <path id="Pfad_330" data-name="Pfad 330" d="M23.942,31.587c-2.679-1.678-4.652-7.468-4.652-14.347,0-.252,0-.5.007-.75l0,0C11.851,15.323,6.468,12.114,6.33,8.321l-.022.044a12.178,12.178,0,0,0-2.864,7.676c0,8.213,9.015,14.942,20.45,15.537ZM0,16.641C0,7.451,11.436,0,25.543,0S51.087,7.451,51.087,16.641,39.651,33.281,25.543,33.281,0,25.83,0,16.641ZM25.543,2.4c2.724,0,5.039,4.131,5.9,9.9l0-.009c5.3-.824,9.008-2.728,9.008-4.941,0-2.972-6.676-5.377-14.91-5.377s-14.91,2.406-14.91,5.377c0,2.213,3.709,4.116,9.008,4.941l0,.009C20.5,6.533,22.821,2.4,25.543,2.4Zm1.649,29.177c11.435-.6,20.451-7.324,20.451-15.537a12.184,12.184,0,0,0-2.864-7.676l-.022-.044c-.137,3.793-5.52,7-12.971,8.172l0,0c.005.248.007.5.007.75,0,6.879-1.975,12.669-4.652,14.347ZM25.543,12.725c1.221,0,2.406-.052,3.541-.152h0c-.565-3.7-1.937-6.3-3.54-6.3s-2.974,2.608-3.54,6.3h0C23.137,12.673,24.323,12.725,25.543,12.725Zm0,13.684c2.051,0,3.723-4.267,3.812-9.619l.011,0c-1.236.114-2.514.175-3.823.175s-2.587-.06-3.823-.175l.012,0C21.821,22.142,23.493,26.408,25.543,26.408Z" transform="translate(134.438 68.981)" fill="red"/>
    <g id="Gruppe_3078" data-name="Gruppe 3078" transform="translate(22.131 28.606)">
      <path id="Pfad_331" data-name="Pfad 331" d="M122.362,11.462a7.78,7.78,0,1,1,7.779,7.779A7.78,7.78,0,0,1,122.362,11.462Zm7.779,4.927a4.664,4.664,0,0,0,4.345-4.927,4.378,4.378,0,1,0-8.688,0A4.663,4.663,0,0,0,130.141,16.389Z" transform="translate(15.897 82.553)" fill="red"/>
      <path id="Pfad_332" data-name="Pfad 332" d="M155.592,7.21V19.175h-3.278V7.21h-4.573V4.5h12.423v2.7h-4.573Z" transform="translate(7.055 82.267)" fill="red"/>
      <path id="Pfad_333" data-name="Pfad 333" d="M170.172,15.875l0,0-1.258,3.3h-3.828l6.052-14.67h4.08l6.053,14.67h-3.829l-1.258-3.3,0,0h-6.006Zm3-2.476h2.061L173.189,8.03h-.029L171.112,13.4h2.064Z" transform="translate(1.013 82.266)" fill="red"/>
      <path id="Pfad_334" data-name="Pfad 334" d="M62.859,7.21V19.175H59.581V7.21H55.007V4.5H67.431v2.7H62.859Z" transform="translate(39.365 82.267)" fill="red"/>
      <path id="Pfad_335" data-name="Pfad 335" d="M75.362,11.462a7.78,7.78,0,1,1,7.781,7.779A7.78,7.78,0,0,1,75.362,11.462Zm7.781,4.927a4.664,4.664,0,0,0,4.344-4.927,4.379,4.379,0,1,0-8.688,0A4.664,4.664,0,0,0,83.143,16.389Z" transform="translate(32.272 82.553)" fill="red"/>
      <path id="Pfad_336" data-name="Pfad 336" d="M106.855,19.175h1.662V13.6l5.718-9.1h-3.827l-3.553,6.166L103.3,4.5H99.474l5.719,9.1v5.57h1.662Z" transform="translate(23.872 82.267)" fill="red"/>
    </g>
  </g>
</svg>
