<svg xmlns="http://www.w3.org/2000/svg" width="189.922" height="31.244" viewBox="0 0 189.922 31.244">
  <g id="Gruppe_3080" data-name="Gruppe 3080" transform="translate(19169 11746)">
    <path id="Pfad_330" data-name="Pfad 330" d="M22.477,29.654c-2.515-1.575-4.367-7.011-4.367-13.469,0-.237,0-.471.007-.7l0,0c-6.994-1.1-12.048-4.111-12.177-7.672l-.021.041a11.432,11.432,0,0,0-2.689,7.206c0,7.71,8.463,14.027,19.2,14.586ZM0,15.622C0,6.995,10.736,0,23.98,0S47.96,6.995,47.96,15.622,37.224,31.244,23.98,31.244,0,24.249,0,15.622ZM23.98,2.254c2.557,0,4.731,3.878,5.537,9.29l0-.008c4.974-.774,8.457-2.561,8.457-4.639,0-2.79-6.267-5.048-14-5.048s-14,2.259-14,5.048c0,2.078,3.482,3.864,8.457,4.639l0,.008C19.249,6.133,21.424,2.254,23.98,2.254Zm1.548,27.391c10.735-.559,19.2-6.876,19.2-14.586a11.438,11.438,0,0,0-2.689-7.206l-.021-.041c-.129,3.561-5.182,6.573-12.177,7.672l0,0c0,.233.007.467.007.7,0,6.458-1.854,11.894-4.367,13.469Zm-1.548-17.7c1.146,0,2.259-.049,3.324-.143h0c-.53-3.469-1.818-5.917-3.323-5.917S21.188,8.335,20.657,11.8h0C21.721,11.9,22.834,11.946,23.98,11.946Zm0,12.846c1.925,0,3.495-4.006,3.579-9.03l.01,0c-1.16.107-2.36.164-3.589.164s-2.429-.056-3.589-.164l.011,0C20.485,20.787,22.055,24.792,23.98,24.792Z" transform="translate(-19169 -11746)" fill="red"/>
    <path id="Pfad_331" data-name="Pfad 331" d="M122.362,15.622A11.94,11.94,0,1,1,134.3,27.561,11.939,11.939,0,0,1,122.362,15.622ZM134.3,23.183c3.683,0,6.668-3.386,6.668-7.562s-2.985-7.562-6.668-7.562-6.665,3.386-6.665,7.562S130.621,23.183,134.3,23.183Z" transform="translate(-19169 -11746)" fill="red"/>
    <path id="Pfad_332" data-name="Pfad 332" d="M159.79,8.657V27.019h-5.03V8.657h-7.018V4.505h19.066V8.656H159.79Z" transform="translate(-19169 -11746)" fill="red"/>
    <path id="Pfad_333" data-name="Pfad 333" d="M172.893,21.954l-.005,0-1.93,5.061h-5.875l9.288-22.514h6.261l9.289,22.514h-5.876l-1.93-5.061-.005,0h-9.217Zm4.61-3.8h3.163l-3.142-8.24h-.044l-3.144,8.24H177.5Z" transform="translate(-19169 -11746)" fill="red"/>
    <path id="Pfad_334" data-name="Pfad 334" d="M67.057,8.657V27.019H62.026V8.657H55.007V4.505H74.074V8.656H67.057Z" transform="translate(-19169 -11746)" fill="red"/>
    <path id="Pfad_335" data-name="Pfad 335" d="M75.362,15.622A11.941,11.941,0,1,1,87.3,27.561,11.94,11.94,0,0,1,75.362,15.622ZM87.3,23.183c3.681,0,6.667-3.386,6.667-7.562S90.985,8.059,87.3,8.059s-6.667,3.386-6.667,7.562S83.621,23.183,87.3,23.183Z" transform="translate(-19169 -11746)" fill="red"/>
    <path id="Pfad_336" data-name="Pfad 336" d="M110.8,27.019h2.551V18.47L122.129,4.5h-5.874L110.8,13.968,105.35,4.5H99.474l8.777,13.965v8.548H110.8Z" transform="translate(-19169 -11746)" fill="red"/>
  </g>
</svg>
