<svg xmlns="http://www.w3.org/2000/svg" width="30" height="30" viewBox="0 0 30 30">
  <g id="Gruppe_1204" data-name="Gruppe 1204" transform="translate(-3061 14442)">
    <rect id="Rechteck_530" data-name="Rechteck 530" width="30" height="30" transform="translate(3061 -14442)" fill="none"/>
    <path id="Pfad_509" data-name="Pfad 509" d="M-555.378,43.177c-8.243,0-14.925,4.322-14.925,9.652s6.682,9.652,14.925,9.652,14.925-4.322,14.925-9.652S-547.135,43.177-555.378,43.177Zm0,15.161c-1.225,0-2.226-2.413-2.291-5.452.739.066,1.505.1,2.291.1s1.552-.035,2.291-.1c-.065,3.038-1.066,5.452-2.291,5.452Zm-2.137-7.862c.334-2.147,1.165-3.669,2.137-3.669s1.8,1.521,2.137,3.669c-.684.062-1.4.095-2.137.095s-1.454-.033-2.138-.095Zm2.137-5.9c-1.6,0-2.966,2.4-3.47,5.738-3.035-.474-5.154-1.55-5.154-2.8,0-1.69,3.861-3.061,8.624-3.061s8.624,1.37,8.624,3.061c0,1.252-2.119,2.329-5.154,2.8-.5-3.343-1.868-5.738-3.47-5.738Zm-12.785,7.893a6.983,6.983,0,0,1,1.727-4.488,2.06,2.06,0,0,0-.019.28c0,2.062,3.092,3.816,7.4,4.463q0,.224-.005.452c0,3.842,1.078,7.094,2.565,8.2C-563.031,60.976-568.163,57.141-568.163,52.467Zm13.9,8.9c1.487-1.1,2.564-4.356,2.564-8.2q0-.227-.005-.452c4.312-.647,7.4-2.4,7.4-4.463a2.051,2.051,0,0,0-.019-.28,6.982,6.982,0,0,1,1.727,4.488C-542.592,57.141-547.724,60.976-554.264,61.371Z" transform="translate(3631.303 -14479.856)" fill="#1d1e24"/>
  </g>
</svg>
