<svg xmlns="http://www.w3.org/2000/svg" width="259.581" height="180.57" viewBox="0 0 259.581 180.57">
  <g id="Page-1" transform="translate(-131 96)">
    <g id="a9s-style-tile" transform="translate(-1949 -525)">
      <g id="Group-9" transform="translate(1335 234)">
        <g id="Group-10" transform="translate(0 168)">
          <g id="Group-2">
            <g id="logo-variation-1" transform="translate(544)">
              <g id="logo-on-white-snake" transform="translate(70 123)">
                <g id="Group">
                  <g id="Group-2-2" data-name="Group-2" transform="translate(131 34)">
                    <path id="Fill-2" d="M19.99,19.64c-3.149,0-10.133.273-10.133,4.779,0,2.459,2.6,3.621,4.86,3.621,4.04,0,7.8-2.118,7.8-6.214V19.64Zm2.532,10.38h-.137C20.126,33.569,16.019,35,11.843,35,5.614,35,0,31.453,0,24.76,0,13.29,13.965,13.086,22.522,13.086c0-3.619-3.012-5.941-6.572-5.941A10.983,10.983,0,0,0,7.6,11.105l-5.476-5.6C5.887,1.957,11.364.183,16.772.183c11.98,0,15.2,6.076,15.2,17.137V34.185H22.522V30.02Z" fill="#fff" fill-rule="evenodd"/>
                    <path id="Fill-3" d="M36.689,1h9.857V5.508h.137A10.8,10.8,0,0,1,56.405.182c10.405,0,12.324,6.827,12.324,15.7v18.3H58.459V17.933c0-3.822-.067-8.738-5.34-8.738-5.34,0-6.16,4.165-6.16,8.467V34.185H36.689V1Z" fill="#fff" fill-rule="evenodd"/>
                    <path id="Fill-4" d="M91.1,39.576C88.365,46.609,86.789,50.57,77,50.57a24.31,24.31,0,0,1-7.666-1.23l1.37-8.4a11.617,11.617,0,0,0,4.792,1.026c4.655,0,5.408-1.981,6.845-5.6l.754-1.912L68.511,1H79.6l8.557,21.917H88.3L95.619,1h10.543L91.1,39.576Z" fill="#fff" fill-rule="evenodd"/>
                    <path id="Fill-5" d="M107.637,1H117.5V5.508h.137a10.794,10.794,0,0,1,9.72-5.325c10.407,0,12.323,6.827,12.323,15.7v18.3H129.408V17.933c0-3.822-.07-8.738-5.341-8.738-5.339,0-6.16,4.165-6.16,8.467V34.185h-10.27V1Z" fill="#fff" fill-rule="evenodd"/>
                    <path id="Fill-6" d="M144.735,34.185h10.27V1h-10.27Z" fill="#fff" fill-rule="evenodd"/>
                    <path id="Fill-7" d="M160.255,1h9.86V5.508h.137A10.791,10.791,0,0,1,179.972.182c10.405,0,12.324,6.827,12.324,15.7v18.3H182.028V17.933c0-3.822-.071-8.738-5.342-8.738-5.338,0-6.16,4.165-6.16,8.467V34.185H160.255V1Z" fill="#fff" fill-rule="evenodd"/>
                    <path id="Fill-8" d="M219.626,13.838a6.146,6.146,0,0,0-6.3-6.282,6.845,6.845,0,0,0-7.257,6.282Zm8.693,14.611A18.09,18.09,0,0,1,214.285,35c-10.268,0-18.483-6.826-18.483-17.41S204.017.182,214.285.182c9.587,0,15.609,6.827,15.609,17.41V20.8H206.07a7.668,7.668,0,0,0,7.738,6.417,8.765,8.765,0,0,0,7.324-4.028l7.187,5.259Z" fill="#fff" fill-rule="evenodd"/>
                    <path id="Fill-9" d="M251.982,10.765a7.347,7.347,0,0,0-5.957-2.8c-1.712,0-3.764.751-3.764,2.73,0,4.915,17.319.752,17.319,13.382,0,8.467-8.218,10.924-15.334,10.924-4.656,0-9.792-1.16-13.074-4.506l6.228-6.9a8.923,8.923,0,0,0,7.254,3.617c2.327,0,4.656-.612,4.656-2.388,0-5.326-17.321-.819-17.321-13.451,0-7.783,6.983-11.2,13.969-11.2,4.379,0,9.239,1.092,12.321,4.369l-6.3,6.213Z" fill="#fff" fill-rule="evenodd"/>
                  </g>
                  <g id="Page-1-2" data-name="Page-1" transform="translate(211 -96)">
                    <path id="Oval" d="M50,100A50,50,0,1,0,0,50,50,50,0,0,0,50,100Z" fill="#e4833e" fill-rule="evenodd"/>
                    <path id="Fill-2-2" data-name="Fill-2" d="M40,49.93a20.629,20.629,0,0,0,.855,5.888h8.259a13.132,13.132,0,1,1,11.718,7.194H35.952a8.973,8.973,0,1,1,0-17.946,16.375,16.375,0,0,1,3.03-7.83h-3.03a16.729,16.729,0,1,0,0,33.458h24.88A20.763,20.763,0,1,0,40,49.93Z" fill="#fff" fill-rule="evenodd"/>
                  </g>
                </g>
              </g>
            </g>
          </g>
        </g>
      </g>
    </g>
  </g>
</svg>
