<svg xmlns="http://www.w3.org/2000/svg" width="193.332" height="49.499" viewBox="0 0 193.332 49.499">
  <g id="Gruppe_17148" data-name="Gruppe 17148" transform="translate(-3419.172 -519.279)">
    <g id="Gruppe_1752" data-name="Gruppe 1752" transform="translate(3479.633 521.356)">
      <path id="Fill-2" d="M10.69,10.588c-1.684,0-5.419.146-5.419,2.556,0,1.315,1.391,1.936,2.6,1.936,2.161,0,4.174-1.133,4.174-3.323V10.588Zm1.354,5.551h-.073A6.42,6.42,0,0,1,6.333,18.8C3,18.8,0,16.906,0,13.326,0,7.192,7.468,7.083,12.045,7.083A3.266,3.266,0,0,0,8.53,3.906,5.874,5.874,0,0,0,4.064,6.024L1.135,3.03A11.5,11.5,0,0,1,8.969.183c6.407,0,8.127,3.249,8.127,9.165v9.019H12.045V16.139Z" transform="translate(0 -0.183)" fill="#062035" fill-rule="evenodd"/>
      <path id="Fill-3" d="M36.689.621h5.272V3.03h.073a5.773,5.773,0,0,1,5.2-2.848c5.565,0,6.591,3.651,6.591,8.4v9.786H48.331V9.675C48.331,7.631,48.3,5,45.475,5,42.62,5,42.181,7.23,42.181,9.53v8.836H36.689V.621Z" transform="translate(-17.068 -0.182)" fill="#062035" fill-rule="evenodd"/>
      <path id="Fill-4" d="M80.592,21.631c-1.463,3.761-2.306,5.879-7.541,5.879a13,13,0,0,1-4.1-.658l.732-4.491a6.213,6.213,0,0,0,2.563.548c2.49,0,2.892-1.059,3.661-2.995l.4-1.023L68.511,1h5.931l4.576,11.721h.073L83.008,1h5.638L80.592,21.631Z" transform="translate(-31.873 -0.564)" fill="#062035" fill-rule="evenodd"/>
      <path id="Fill-5" d="M107.637.621h5.272V3.03h.073a5.773,5.773,0,0,1,5.2-2.848c5.566,0,6.59,3.651,6.59,8.4v9.786H119.28V9.675c0-2.044-.037-4.673-2.856-4.673-2.855,0-3.294,2.227-3.294,4.528v8.836h-5.492V.621Z" transform="translate(-50.075 -0.182)" fill="#062035" fill-rule="evenodd"/>
      <path id="Fill-6" d="M144.735,18.748h5.492V1h-5.492Z" transform="translate(-67.333 -0.564)" fill="#062035" fill-rule="evenodd"/>
      <path id="Fill-7" d="M160.255.621h5.273V3.03h.073A5.771,5.771,0,0,1,170.8.182c5.565,0,6.591,3.651,6.591,8.4v9.786H171.9V9.675c0-2.044-.038-4.673-2.857-4.673-2.855,0-3.294,2.227-3.294,4.528v8.836h-5.493V.621Z" transform="translate(-74.553 -0.182)" fill="#062035" fill-rule="evenodd"/>
      <path id="Fill-8" d="M208.543,7.485a3.287,3.287,0,0,0-3.369-3.359,3.66,3.66,0,0,0-3.881,3.359Zm4.649,7.814a9.674,9.674,0,0,1-7.505,3.5c-5.491,0-9.884-3.65-9.884-9.311S200.2.182,205.686.182c5.127,0,8.347,3.651,8.347,9.31v1.716h-12.74a4.1,4.1,0,0,0,4.138,3.432,4.687,4.687,0,0,0,3.917-2.154l3.843,2.812Z" transform="translate(-91.09 -0.182)" fill="#062035" fill-rule="evenodd"/>
      <path id="Fill-9" d="M242.3,5.842a3.929,3.929,0,0,0-3.186-1.5c-.915,0-2.013.4-2.013,1.46,0,2.629,9.262.4,9.262,7.157,0,4.528-4.395,5.842-8.2,5.842-2.49,0-5.237-.621-6.992-2.41l3.331-3.688a4.772,4.772,0,0,0,3.879,1.935c1.244,0,2.49-.327,2.49-1.277,0-2.848-9.263-.438-9.263-7.193,0-4.162,3.734-5.988,7.47-5.988,2.342,0,4.941.584,6.589,2.337L242.3,5.842Z" transform="translate(-107.546 -0.183)" fill="#062035" fill-rule="evenodd"/>
    </g>
    <path id="Oval" d="M26.739,53.478A26.739,26.739,0,1,0,0,26.739,26.739,26.739,0,0,0,26.739,53.478Z" transform="translate(3409.576 503.076)" fill="#e4833e" fill-rule="evenodd"/>
    <path id="Fill-2-2" data-name="Fill-2" d="M30.308,40.27a11.032,11.032,0,0,0,.457,3.149h4.417a7.023,7.023,0,1,1,6.267,3.847H28.143a4.8,4.8,0,1,1,0-9.6,8.757,8.757,0,0,1,1.62-4.188h-1.62a8.946,8.946,0,1,0,0,17.893H41.449a11.1,11.1,0,1,0-11.141-11.1Z" transform="translate(3400.66 489.507)" fill="#fff" fill-rule="evenodd"/>
  </g>
</svg>
