<svg xmlns="http://www.w3.org/2000/svg" width="106.633" height="76.422" viewBox="0 0 106.633 76.422">
  <g id="Gruppe_17150" data-name="Gruppe 17150" transform="translate(-4245 756)">
    <g id="Gruppe_1784" data-name="Gruppe 1784" transform="translate(4245 -700.143)">
      <path id="Fill-2" d="M8.212,8.124c-1.294,0-4.162.112-4.162,1.951,0,1,1.069,1.478,2,1.478,1.66,0,3.206-.864,3.206-2.536V8.124Zm1.04,4.236H9.2a4.943,4.943,0,0,1-4.331,2.034C2.306,14.394,0,12.945,0,10.214,0,5.532,5.737,5.449,9.252,5.449a2.5,2.5,0,0,0-2.7-2.425A4.523,4.523,0,0,0,3.122,4.641L.872,2.356A8.867,8.867,0,0,1,6.89.183c4.921,0,6.243,2.48,6.243,6.994V14.06H9.252v-1.7Z" transform="translate(0 -0.183)" fill="#062035" fill-rule="evenodd"/>
      <path id="Fill-3" d="M36.689.517h4.049V2.356h.056A4.44,4.44,0,0,1,44.788.182c4.274,0,5.063,2.787,5.063,6.409V14.06H45.632V7.427c0-1.56-.028-3.566-2.194-3.566-2.194,0-2.531,1.7-2.531,3.456V14.06H36.689V.517Z" transform="translate(-21.617 -0.182)" fill="#062035" fill-rule="evenodd"/>
      <path id="Fill-4" d="M77.791,16.745c-1.124,2.87-1.772,4.487-5.793,4.487a10.045,10.045,0,0,1-3.149-.5l.563-3.427a4.8,4.8,0,0,0,1.969.419c1.912,0,2.222-.808,2.812-2.285l.31-.78L68.511,1h4.556l3.515,8.945h.056L79.647,1h4.331L77.791,16.745Z" transform="translate(-40.368 -0.667)" fill="#062035" fill-rule="evenodd"/>
      <path id="Fill-5" d="M107.637.517h4.05V2.356h.056A4.44,4.44,0,0,1,115.736.182c4.275,0,5.062,2.787,5.062,6.409V14.06H116.58V7.427c0-1.56-.029-3.566-2.194-3.566-2.193,0-2.53,1.7-2.53,3.456V14.06h-4.219V.517Z" transform="translate(-63.421 -0.182)" fill="#062035" fill-rule="evenodd"/>
      <path id="Fill-6" d="M144.735,14.545h4.219V1h-4.219Z" transform="translate(-85.28 -0.667)" fill="#062035" fill-rule="evenodd"/>
      <path id="Fill-7" d="M160.255.517h4.05V2.356h.056A4.438,4.438,0,0,1,168.355.182c4.274,0,5.063,2.787,5.063,6.409V14.06H169.2V7.427c0-1.56-.029-3.566-2.194-3.566-2.193,0-2.53,1.7-2.53,3.456V14.06h-4.219V.517Z" transform="translate(-94.424 -0.182)" fill="#062035" fill-rule="evenodd"/>
      <path id="Fill-8" d="M205.589,5.756A2.517,2.517,0,0,0,203,3.192a2.805,2.805,0,0,0-2.981,2.564Zm3.571,5.963a7.451,7.451,0,0,1-5.765,2.675c-4.218,0-7.592-2.786-7.592-7.106S199.177.182,203.394.182c3.938,0,6.412,2.787,6.412,7.106V8.6H200.02a3.145,3.145,0,0,0,3.179,2.619,3.606,3.606,0,0,0,3.009-1.644l2.952,2.146Z" transform="translate(-115.368 -0.182)" fill="#062035" fill-rule="evenodd"/>
      <path id="Fill-9" d="M239.721,4.5a3.026,3.026,0,0,0-2.447-1.142c-.7,0-1.546.307-1.546,1.114,0,2.006,7.115.307,7.115,5.462,0,3.456-3.376,4.458-6.3,4.458a7.56,7.56,0,0,1-5.371-1.839l2.558-2.814a3.673,3.673,0,0,0,2.98,1.476c.956,0,1.913-.25,1.913-.975,0-2.174-7.115-.334-7.115-5.49,0-3.177,2.869-4.57,5.738-4.57a6.942,6.942,0,0,1,5.061,1.783L239.721,4.5Z" transform="translate(-136.209 -0.183)" fill="#062035" fill-rule="evenodd"/>
    </g>
    <g id="Gruppe_1804" data-name="Gruppe 1804" transform="translate(4277.149 -756)">
      <path id="Oval" d="M21.212,42.15A21.076,21.076,0,1,0,0,21.075,21.144,21.144,0,0,0,21.212,42.15Z" transform="translate(0)" fill="#e4833e" fill-rule="evenodd"/>
      <path id="Fill-2-2" data-name="Fill-2" d="M26.336,36.266a7.011,7.011,0,0,0,.294,2.013h2.842a4.418,4.418,0,0,1-.483-2.013,4.517,4.517,0,1,1,4.516,4.473H24.943a3.068,3.068,0,1,1,0-6.136,5.58,5.58,0,0,1,1.043-2.677H24.943a5.72,5.72,0,1,0,0,11.439h8.562A7.185,7.185,0,0,0,37.11,42.4a7.122,7.122,0,1,0-10.774-6.136Z" transform="translate(-8.82 -15.259)" fill="#fff" fill-rule="evenodd"/>
    </g>
  </g>
</svg>
