<svg xmlns="http://www.w3.org/2000/svg" width="40" height="40" viewBox="0 0 40 40">
  <g id="Gruppe_3068" data-name="Gruppe 3068" transform="translate(-6688.357 13888.876)">
    <path id="Pfad_1846" data-name="Pfad 1846" d="M1254.739,1356.824h0a99.152,99.152,0,0,1-17.41.071l-.844-.071a10.245,10.245,0,0,1-10.248-10.241h0a109.089,109.089,0,0,1,0-18.679v-.01a10.245,10.245,0,0,1,10.248-10.241l.389-.033a107.024,107.024,0,0,1,18.313.033h0a10.245,10.245,0,0,1,10.248,10.241h0a109.129,109.129,0,0,1,0,18.686v0h0A10.83,10.83,0,0,1,1254.739,1356.824Z" transform="translate(5462.521 -15206.119)" fill="#e4833e"/>
    <path id="Fill-2" d="M25.914,35.887a6.673,6.673,0,0,0,.277,1.906h2.675a4.254,4.254,0,1,1,3.8,2.329H24.6a2.9,2.9,0,1,1,0-5.809,5.3,5.3,0,0,1,.981-2.534H24.6a5.415,5.415,0,1,0,0,10.829h8.058a6.721,6.721,0,1,0-6.747-6.721Z" transform="translate(6678.999 -13904.827)" fill="#fff" fill-rule="evenodd"/>
  </g>
</svg>
