<svg width="30" height="30" viewBox="0 0 30 30" fill="none" xmlns="http://www.w3.org/2000/svg">
<path fill-rule="evenodd" clip-rule="evenodd" d="M29.9978 14.9989C29.9978 23.2826 23.2826 29.9978 14.9989 29.9978C6.71524 29.9978 0 23.2826 0 14.9989C0 6.71524 6.71524 0 14.9989 0C23.2826 0 29.9978 6.71524 29.9978 14.9989ZM12.2564 16.7446C12.09 16.1849 11.9998 15.5926 11.9998 14.9783C11.9998 11.5388 14.7978 8.74988 18.2491 8.74988C21.7008 8.74988 24.4989 11.5388 24.4989 14.9783C24.4989 17.276 23.2492 19.282 21.3919 20.3618C20.4686 20.8986 19.3954 21.207 18.2491 21.207H10.7856C8.00446 21.207 5.75024 18.9608 5.75024 16.1886C5.75024 13.4171 8.00446 11.1704 10.7856 11.1704H11.6944C11.6944 11.1704 10.8829 12.2195 10.7856 13.5194C9.29358 13.5194 8.08453 14.7244 8.08453 16.211C8.08453 17.6979 9.29358 18.9027 10.7856 18.9027H18.2491C20.4237 18.9027 22.1868 17.1461 22.1868 14.9783C22.1868 12.811 20.4237 11.0548 18.2491 11.0548C16.0743 11.0548 14.3126 12.811 14.3126 14.9783C14.3126 15.6141 14.4649 16.2137 14.7338 16.7446H12.2564Z" fill="white"/>
</svg>
