<svg xmlns="http://www.w3.org/2000/svg" width="86.535" height="31.029" viewBox="0 0 86.535 31.029">
  <g id="thomsit-logo-428e9171d168287924f97130963a673d8ec7732c4565c7d73cd9e06ba142d5e8" transform="translate(-3.129)">
    <g id="HG" transform="translate(3.129)">
      <path id="Pfad_1" data-name="Pfad 1" d="M27.362,0,24.4,18.143l83.548.026L110.935.038Z" transform="translate(-24.4)"/>
    </g>
    <g id="Logo" transform="translate(8.206 3.18)">
      <g id="Gruppe_3" data-name="Gruppe 3">
        <path id="Pfad_2" data-name="Pfad 2" d="M74.3,26.8l-.513,3.257H70.744L69.475,38.1H65.757l1.269-8.039H64l.513-3.257Z" transform="translate(-64 -26.544)" fill="#fff"/>
        <path id="Pfad_3" data-name="Pfad 3" d="M153.1,26.8l-1.8,11.3H147.6l.628-4.013h-3.064l-.628,4.013H140.8l1.8-11.3h3.731l-.641,4.013h3.077l.628-4.013Z" transform="translate(-130.953 -26.544)" fill="#fff"/>
        <path id="Pfad_4" data-name="Pfad 4" d="M246.589,36.609c-3.988,0-5.847-2.77-5.308-6.129a6.587,6.587,0,0,1,6.86-5.68c3.923,0,5.86,2.757,5.308,6.129A6.56,6.56,0,0,1,246.589,36.609Zm.308-3.372a2.775,2.775,0,0,0,2.8-2.731c.192-1.436-.449-2.334-1.834-2.334a2.816,2.816,0,0,0-2.8,2.731C244.884,32.339,245.525,33.237,246.9,33.237Z" transform="translate(-218.47 -24.8)" fill="#fff"/>
        <path id="Pfad_5" data-name="Pfad 5" d="M356.72,26.8l-1.8,11.3H351.3l.833-5.244-2.193,2.859h-2.116l-1.333-2.872-.859,5.257H342l1.8-11.3h3.193l2.334,5.039,3.847-5.039Z" transform="translate(-306.355 -26.544)" fill="#fff"/>
        <path id="Pfad_6" data-name="Pfad 6" d="M463.685,24.8a8.5,8.5,0,0,1,4.129.987l-.487,3.116a6.012,6.012,0,0,0-3.411-1.013c-.795,0-1.244.18-1.269.513-.1,1.1,5.347,1,4.706,4.872-.449,2.667-2.641,3.347-5.129,3.347a8.488,8.488,0,0,1-4.424-1.116l.513-3.231a6.246,6.246,0,0,0,3.731,1.231c.987,0,1.487-.192,1.539-.513.192-1.3-5.308-.949-4.693-4.988C459.236,25.839,461.441,24.8,463.685,24.8Z" transform="translate(-407.307 -24.8)" fill="#fff"/>
        <path id="Pfad_7" data-name="Pfad 7" d="M545.826,26.8l-1.8,11.3H540.3l1.8-11.3Z" transform="translate(-479.229 -26.544)" fill="#fff"/>
        <path id="Pfad_8" data-name="Pfad 8" d="M600.2,26.8l-.513,3.257h-3.039L595.375,38.1h-3.705l1.269-8.039H589.9l.513-3.257Z" transform="translate(-522.469 -26.544)" fill="#fff"/>
      </g>
    </g>
    <g id="Claim" transform="translate(41.248 22.118)">
      <g id="Gruppe_4" data-name="Gruppe 4">
        <path id="Pfad_9" data-name="Pfad 9" d="M329.688,193.8a1.877,1.877,0,0,1,1.885,2.359l-.59,3.654H329.3l.59-3.68a.686.686,0,0,0-.744-.872,1.952,1.952,0,0,0-1.295.628,1.745,1.745,0,0,1-.026.269l-.59,3.654h-1.68l.59-3.68a.681.681,0,0,0-.744-.872,1.987,1.987,0,0,0-1.41.782l-.6,3.782H321.7l.923-5.847h1.487l-.115.705a2.982,2.982,0,0,1,2.026-.872,1.622,1.622,0,0,1,1.59.859A3.259,3.259,0,0,1,329.688,193.8Z" transform="translate(-321.7 -191.069)"/>
        <path id="Pfad_10" data-name="Pfad 10" d="M407.291,199.893c-1.846,0-2.693-1.551-2.423-3.205a3.371,3.371,0,0,1,3.257-2.987,2.186,2.186,0,0,1,2.013,1.141l.154-.974h1.487l-.923,5.847h-1.487l.128-.859A2.689,2.689,0,0,1,407.291,199.893Zm.474-1.423a2.133,2.133,0,0,0,1.757-1.026l.231-1.359a1.288,1.288,0,0,0-1.308-.949,1.924,1.924,0,0,0-1.9,1.705A1.27,1.27,0,0,0,407.765,198.47Z" transform="translate(-394.161 -190.982)"/>
        <path id="Pfad_11" data-name="Pfad 11" d="M468.657,176.88l-2.513,2.923,1.692,2.923h-1.782l-1.346-2.359h-.744l-.372,2.359H461.9l1.346-8.527h1.693l-.782,4.821h.731l1.808-2.141h1.962Z" transform="translate(-443.924 -173.982)"/>
        <path id="Pfad_12" data-name="Pfad 12" d="M514.879,193.8c2.359,0,2.987,1.936,2.334,3.654h-4.129c.064.872.923,1.192,1.808,1.192a4.272,4.272,0,0,0,1.91-.4l-.205,1.372a5.472,5.472,0,0,1-2.116.359c-1.782,0-3.3-1.141-2.975-3.218A3.358,3.358,0,0,1,514.879,193.8Zm-.026,1.282a1.588,1.588,0,0,0-1.59,1.269h2.616A.959.959,0,0,0,514.853,195.082Z" transform="translate(-487.132 -191.069)"/>
        <path id="Pfad_13" data-name="Pfad 13" d="M581.7,181.245l.923-5.847h1.693l-.923,5.847Zm2-6.808a.85.85,0,0,1-.9-1.077.991.991,0,0,1,1.064-.859.845.845,0,0,1,.9,1.077A1,1,0,0,1,583.7,174.436Z" transform="translate(-548.363 -172.5)" fill="#e2007a"/>
        <path id="Pfad_14" data-name="Pfad 14" d="M609.531,178.7l-.333,2.1h1.846l-.231,1.423h-1.846l-.372,2.334c-.1.615.141.833.769.833a2.95,2.95,0,0,0,1.128-.218l-.218,1.385a4.2,4.2,0,0,1-1.526.256c-1.1,0-2.09-.577-1.859-2.026l.4-2.564H606.3l.231-1.423h.974l.282-1.693Z" transform="translate(-569.809 -177.905)" fill="#e2007a"/>
        <path id="Pfad_15" data-name="Pfad 15" d="M645.18,182.88a.871.871,0,0,1-.923-1.1,1.019,1.019,0,0,1,1.09-.872.874.874,0,0,1,.936,1.09A1.039,1.039,0,0,1,645.18,182.88Zm-.372-3.077.782-5.6h1.8l-1,5.6Z" transform="translate(-602.88 -173.982)" fill="#e2007a"/>
      </g>
    </g>
  </g>
</svg>
